<svg height="512pt" viewBox="-59 0 512 512.00067" width="512pt" xmlns="http://www.w3.org/2000/svg"><path d="m294.621094 74.140625c-4.398438-4.132813-11.613282-1.6875-12.617188 4.261719-2.375 14.023437-7.289062 36.742187-16.578125 57.644531 0 0-18.371093-101.027344-140.691406-135.75-5.285156-1.5-10.363281 2.929687-9.558594 8.363281 4.4375 30.019532 12.4375 114.71875-21.789062 195.832032-17.804688-36.199219-46.265625-50.316407-64.382813-55.785157-6.070312-1.832031-11.609375 4.109375-9.246094 9.992188 15.832032 39.464843-19.757812 88.773437-19.757812 156.019531 0 108.957031 88.324219 197.28125 197.28125 197.28125 108.953125 0 197.277344-88.324219 197.277344-197.277344 0-133.867187-72.183594-214.519531-99.9375-240.582031zm0 0" fill="#fec37c"/><path d="m331.710938 347.722656c-.859376-64.472656-26.351563-109.042968-40.191407-128.558594-3.558593-5.019531-11.160156-4.394531-13.917969 1.101563-4.238281 8.441406-11.042968 19.113281-20.304687 24.667969 0 0-39.261719-31.640625-41.09375-79.042969-.207031-5.410156-5.613281-9.066406-10.742187-7.324219-20.789063 7.070313-64.910157 30.820313-75.574219 106.488282-8.765625-15.777344-29.554688-20.386719-42.914063-21.683594-5.566406-.542969-10.0625 4.601562-8.675781 10.019531 10.179687 39.753906-15.46875 63.507813-15.46875 97.667969 0 74.125 59.988281 134.242187 134.0625 134.453125 75.207031.214843 135.820313-62.589844 134.820313-137.789063zm0 0" fill="#f26365"/><g fill="#57565b"><path d="m129.792969 377.191406c-4.265625 0-7.722657-3.457031-7.722657-7.726562v-12.210938c0-4.269531 3.457032-7.726562 7.722657-7.726562 4.269531 0 7.726562 3.457031 7.726562 7.726562v12.210938c0 4.269531-3.457031 7.726562-7.726562 7.726562zm0 0"/><path d="m264.765625 377.191406c-4.265625 0-7.726563-3.457031-7.726563-7.726562v-12.210938c0-4.269531 3.460938-7.726562 7.726563-7.726562s7.726563 3.457031 7.726563 7.726562v12.210938c0 4.269531-3.460938 7.726562-7.726563 7.726562zm0 0"/><path d="m197.28125 383.710938c-8.722656 0-16.914062-3.648438-22.476562-10.011719-2.804688-3.210938-2.480469-8.09375.734374-10.902344 3.214844-2.804687 8.09375-2.480469 10.902344.734375 2.625 3.003906 6.578125 4.726562 10.839844 4.726562s8.210938-1.722656 10.835938-4.726562c2.808593-3.214844 7.691406-3.539062 10.902343-.734375 3.214844 2.808594 3.542969 7.691406.734375 10.902344-5.5625 6.363281-13.753906 10.011719-22.472656 10.011719zm0 0"/></g></svg>