<svg id="Capa_1" enable-background="new 0 0 512 512" height="512" viewBox="0 0 512 512" width="512" xmlns="http://www.w3.org/2000/svg"><g><path d="m504.859 421.345h-30.998c-12.559 0-24.803-3.933-35.012-11.247l-20.049-14.364-58.249-41.731-12.782-9.157c-4.271-3.06-8.925-5.547-13.842-7.397l-66.5-25.02c-7.54-2.837-14.433-7.16-20.27-12.714l-60.662-57.717-53.011-91.598-20.226-42.699c-3.375-7.125-8.119-13.517-13.961-18.811l-87.36-79.17c-4.59-4.159-11.937-.902-11.937 5.292v481.99c0 3.944 3.197 7.142 7.141 7.142h497.717c3.944 0 7.141-3.197 7.141-7.142v-68.516c.001-3.944-3.196-7.141-7.14-7.141z" fill="#dfebfa"/><path d="m54.656 473.541v-372.121c0-16.152 11.66-27.625 25.218-30.132l-67.937-61.568c-4.59-4.159-11.937-.902-11.937 5.292v481.99c0 3.944 3.197 7.142 7.141 7.142h78.117c-16.901-.001-30.602-13.702-30.602-30.603z" fill="#b1dbfc"/><path d="m246.126 300.746c3.119 2.967 6.547 5.571 10.206 7.797 17.515 5.86 38.485 2.806 55.006-8.282 28.284-18.982 35.825-57.298 16.843-85.582s-57.298-35.825-85.582-16.843c-25.479 17.099-35.144 50.914-22.734 77.925z" fill="#dfebfa"/><path d="m288.807 300.26c-28.284-18.982-35.825-57.298-16.843-85.582 7.149-10.653 17.043-18.36 28.109-22.819-18.314-7.38-39.842-5.856-57.473 5.976-25.479 17.099-35.144 50.914-22.734 77.925l26.26 24.985c3.119 2.967 6.547 5.571 10.206 7.797 13.729 4.593 29.572 3.686 43.74-2.251-3.907-1.637-7.694-3.634-11.265-6.031z" fill="#b1dbfc"/><g><path d="m297.713 157.669c-2.233 0-4.448-.963-5.975-2.823l-43.021-52.384c-2.708-3.297-2.23-8.166 1.067-10.874 3.298-2.708 8.166-2.23 10.875 1.067l43.021 52.384c2.708 3.297 2.23 8.166-1.067 10.874-1.438 1.181-3.175 1.756-4.9 1.756z" fill="#dfebfa"/></g><g><path d="m213.885 119.029c-2.233 0-4.448-.963-5.975-2.823l-8.714-10.611c-2.708-3.297-2.23-8.166 1.067-10.874 3.299-2.708 8.167-2.23 10.874 1.067l8.714 10.611c2.708 3.297 2.23 8.166-1.067 10.874-1.438 1.181-3.174 1.756-4.899 1.756z" fill="#dfebfa"/></g><g><path d="m254.14 168.044c-2.233 0-4.448-.963-5.975-2.823l-20.41-24.853c-2.708-3.297-2.23-8.166 1.067-10.874 3.299-2.708 8.166-2.23 10.874 1.067l20.41 24.853c2.708 3.297 2.231 8.166-1.067 10.874-1.438 1.181-3.174 1.756-4.899 1.756z" fill="#dfebfa"/></g><g><path d="m211.351 179.374c-2.233 0-4.448-.963-5.975-2.823l-20.41-24.852c-2.708-3.297-2.23-8.166 1.067-10.874 3.298-2.708 8.166-2.229 10.874 1.067l20.41 24.852c2.708 3.297 2.23 8.166-1.067 10.874-1.438 1.181-3.174 1.756-4.899 1.756z" fill="#dfebfa"/></g><path d="m388.78 391.613h25.548v63.716h-25.548z" fill="#ab6b51"/><path d="m388.909 391.999h12.774v63.716h-12.774z" fill="#965a44"/><path d="m144.122 380.2 12.277 3.81v-75.591h-24.553v60.422z" fill="#ab6b51"/><path d="m144.251 308.806h-12.277v60.422l12.277 11.358z" fill="#965a44"/><circle cx="356.931" cy="169.545" fill="#dfebfa" r="15.622"/><path d="m358.694 169.545c0-5.41 2.751-10.176 6.93-12.979-2.485-1.668-5.474-2.642-8.692-2.642-8.628 0-15.622 6.994-15.622 15.622s6.994 15.622 15.622 15.622c3.218 0 6.207-.975 8.692-2.642-4.179-2.806-6.93-7.572-6.93-12.981z" fill="#b1dbfc"/><g fill="#dfebfa"><circle cx="385.939" cy="115.616" r="11.624"/><circle cx="471.981" cy="256" r="11.624"/><circle cx="156.399" cy="71.513" r="11.624"/></g><g><path d="m424.042 467.177h-46.461c-4.267 0-7.726-3.459-7.726-7.726s3.459-7.726 7.726-7.726h46.461c4.267 0 7.726 3.459 7.726 7.726.001 4.266-3.459 7.726-7.726 7.726z" fill="#b1dbfc"/></g><g><path d="m88.53 204.082c-3.442 0-6.581-2.317-7.478-5.805l-10.682-41.563-25.026-32.375c-2.61-3.376-1.988-8.228 1.388-10.838 3.376-2.611 8.228-1.989 10.838 1.387l26 33.634c.642.831 1.109 1.785 1.37 2.802l11.079 43.106c1.062 4.133-1.427 8.345-5.56 9.407-.645.166-1.293.245-1.929.245z" fill="#b1dbfc"/></g><g><path d="m207.733 420.957c-1.446 0-2.909-.406-4.212-1.255l-25.943-16.908-35.746-11.094c-1.101-.342-2.111-.925-2.957-1.708l-44.49-41.162c-3.132-2.898-3.322-7.786-.424-10.918s7.787-3.322 10.919-.425l43.205 39.974 35.103 10.894c.682.212 1.331.517 1.929.906l26.844 17.496c3.575 2.33 4.584 7.117 2.254 10.692-1.483 2.272-3.957 3.508-6.482 3.508z" fill="#b1dbfc"/></g><g><path d="m315.843 420.957c-1.447 0-2.909-.406-4.212-1.255l-25.943-16.908-35.747-11.094c-.331-.103-.655-.228-.969-.374l-31.068-14.454c-3.869-1.8-5.546-6.396-3.746-10.265s6.396-5.546 10.264-3.746l30.597 14.235 36.277 11.259c.682.212 1.33.517 1.929.906l26.844 17.496c3.575 2.33 4.584 7.117 2.254 10.692-1.482 2.272-3.956 3.508-6.48 3.508z" fill="#b1dbfc"/></g><path d="m173.753 251.729c-.087-.175-.266-.285-.461-.285h-58.341c-.195 0-.373.11-.461.285l-26.832 53.664c-.826 1.653-.74 3.579.232 5.151s2.655 2.511 4.504 2.511h103.456c1.848 0 3.532-.939 4.503-2.511.972-1.572 1.058-3.497.232-5.151z" fill="#43cb8e"/><path d="m113.537 310.544c-.972-1.572-1.058-3.498-.232-5.151l26.832-53.664c.087-.175.266-.285.461-.285h-25.646c-.195 0-.373.11-.461.285l-26.832 53.664c-.826 1.653-.74 3.579.232 5.151s2.655 2.511 4.504 2.511h25.646c-1.849 0-3.532-.938-4.504-2.511z" fill="#00ba66"/><path d="m164.119 196.096c-.087-.175-.266-.285-.461-.285h-39.071c-.195 0-.373.11-.461.285l-24.459 48.918c-.805 1.61-.72 3.485.226 5.016s2.586 2.445 4.385 2.445h79.688c1.8 0 3.439-.914 4.385-2.445s1.03-3.406.226-5.016z" fill="#00ba66"/><path d="m125.539 250.03c-.946-1.531-1.031-3.406-.226-5.016l24.459-48.918c.087-.175.266-.285.461-.285h-25.646c-.195 0-.373.11-.461.285l-24.459 48.918c-.805 1.61-.72 3.485.226 5.016s2.586 2.445 4.385 2.445h25.646c-1.8-.001-3.439-.915-4.385-2.445z" fill="#00a855"/><path d="m117.695 196.841h52.855c1.728 0 3.302-.877 4.21-2.347s.989-3.27.217-4.815l-26.427-52.855c-.844-1.688-2.54-2.736-4.427-2.736s-3.583 1.048-4.427 2.736l-26.427 52.855c-.773 1.545-.692 3.345.217 4.815.907 1.469 2.481 2.347 4.209 2.347z" fill="#43cb8e"/><path d="m139.131 194.493c-.908-1.47-.989-3.27-.217-4.815l18.031-36.062-8.396-16.793c-.844-1.688-2.54-2.736-4.427-2.736s-3.583 1.048-4.427 2.736l-26.427 52.855c-.773 1.545-.692 3.345.217 4.815.908 1.47 2.482 2.348 4.21 2.348h25.646c-1.728 0-3.302-.878-4.21-2.348z" fill="#00ba66"/><path d="m432.379 332.452c-.091-.182-.276-.296-.479-.296h-60.691c-.203 0-.389.115-.479.296l-27.913 55.826c-.86 1.72-.77 3.723.241 5.358 1.011 1.636 2.762 2.612 4.685 2.612h107.624c1.923 0 3.674-.976 4.685-2.612 1.011-1.635 1.101-3.638.241-5.358z" fill="#43cb8e"/><path d="m369.736 393.637c-1.011-1.635-1.101-3.639-.241-5.358l27.913-55.826c.091-.182.276-.296.479-.296h-26.679c-.203 0-.389.115-.479.296l-27.913 55.826c-.86 1.72-.77 3.723.241 5.358 1.011 1.636 2.762 2.612 4.685 2.612h26.679c-1.922 0-3.674-.977-4.685-2.612z" fill="#00ba66"/><path d="m422.356 274.577c-.091-.182-.276-.296-.479-.296h-40.645c-.203 0-.389.115-.479.296l-25.444 50.889c-.837 1.675-.749 3.625.235 5.218.984 1.592 2.69 2.543 4.562 2.543h82.899c1.872 0 3.578-.951 4.562-2.543.984-1.593 1.072-3.544.235-5.218z" fill="#00ba66"/><path d="m382.222 330.684c-.984-1.593-1.072-3.543-.235-5.218l25.444-50.889c.091-.182.276-.296.479-.296h-26.679c-.203 0-.389.115-.479.296l-25.444 50.889c-.837 1.675-.749 3.625.235 5.218.984 1.592 2.69 2.543 4.562 2.543h26.679c-1.872 0-3.578-.95-4.562-2.543z" fill="#00a855"/><path d="m374.062 275.353h54.984c1.797 0 3.435-.913 4.38-2.442s1.029-3.402.226-5.009l-27.492-54.984c-.878-1.756-2.642-2.846-4.605-2.846s-3.727 1.091-4.605 2.846l-27.492 54.984c-.804 1.608-.72 3.48.225 5.009.944 1.529 2.581 2.442 4.379 2.442z" fill="#43cb8e"/><path d="m396.362 272.911c-.945-1.529-1.029-3.401-.225-5.009l18.757-37.515-8.735-17.469c-.878-1.756-2.642-2.846-4.605-2.846s-3.727 1.091-4.605 2.846l-27.492 54.984c-.804 1.608-.72 3.48.225 5.009s2.582 2.442 4.38 2.442h26.679c-1.797 0-3.435-.913-4.379-2.442z" fill="#00ba66"/></g></svg>