<svg height="512" viewBox="0 0 64 64" width="512" xmlns="http://www.w3.org/2000/svg"><g id="flat"><path d="m44 57h-24l.11-1.19.92-9.66.02-.15.19-2 .03-.31.9-9.44.02-.25.19-2 .04-.4.79-8.32.03-.28.19-2 .02-.26.45-4.7.1-1.04h16l.1 1.04.45 4.7.02.26.19 2 .03.28.79 8.32.04.4.19 2 .02.25.9 9.44.03.31.19 2 .02.15.92 9.66z" fill="#cdeef6"/><path d="m40 15h-2v-11h-12v11h-2v-12a1 1 0 0 1 1-1h14a1 1 0 0 1 1 1z" fill="#2d75bb"/><path d="m45.293 11.707-3.707-3.707h-19.172l-3.707 3.707-1.414-1.414 4-4a1 1 0 0 1 .707-.293h20a1 1 0 0 1 .707.293l4 4z" fill="#50b4f8"/><path d="m50 20h-2v-8h-32v8h-2v-10h36z" fill="#dd3e46"/><g fill="#2d75bb"><path d="m12 14h6v2h-6z"/><path d="m12 18h6v2h-6z"/><path d="m46 14h6v2h-6z"/><path d="m46 18h6v2h-6z"/></g><path d="m12 57h40v4h-40z" fill="#dd3e46"/><path d="m43.89 55.81-9.73-5.07 8.81-4.59-.02-.15-.19-2-.03-.31-8.71-4.98 7.81-4.46-.02-.25-.19-2-.04-.4-7.58-4.39 6.79-3.93-.03-.28-.19-2-.02-.26-5.92-2.45 5.47-2.25-.1-1.04h-2.62l-5.38 2.21-5.38-2.21h-2.62l-.1 1.04 5.47 2.25-5.92 2.45-.02.26-.19 2-.03.28 6.79 3.93-7.58 4.39-.04.4-.19 2-.02.25 7.81 4.46-8.71 4.98-.03.31-.19 2-.02.15 8.81 4.59-9.73 5.07-.11 1.19h2.17l9.83-5.13 9.83 5.13h2.17zm-17.16-32.81-1.47-.85 2.8-1.15 3.94-1.62 3.94 1.62 2.8 1.15-1.47.85-5.27 3.06zm-.95 11-1.77-1.01 1.71-.99 6.28-3.63 6.28 3.63 1.71.99-1.77 1.01-6.22 3.56zm-.7 12-1.99-1.04 1.68-.96 7.23-4.13 7.23 4.13 1.68.96-1.99 1.04-6.92 3.61z" fill="#50b4f8"/><path d="m42.95 46h-21.9l.19-2h21.52z" fill="#2d75bb"/><path d="m11 29h5l-3 5h5l-7 11v-7h-5z" fill="#e97424"/><path d="m52 23h5l-3 5h5l-7 11v-7h-5z" fill="#e97424"/><path d="m40.76 23h-17.52l.19-2h17.14z" fill="#2d75bb"/><path d="m41.81 34h-19.62l.19-2h19.24z" fill="#2d75bb"/></g></svg>