<svg id="Capa_1" enable-background="new 0 0 512 512" height="512" viewBox="0 0 512 512" width="512" xmlns="http://www.w3.org/2000/svg"><g><path d="m406 166h30v60h-30z" fill="#704c55"/><path d="m421 166h15v60h-15z" fill="#5a344b"/><path d="m421 0c-38.699 0-60 70.3-60 106 0 41.4 27.001 75 60 75s60-33.6 60-75c0-35.7-21.301-106-60-106z" fill="#8cd96b"/><path d="m481 106c0 41.4-27.001 75-60 75v-181c38.699 0 60 70.3 60 106z" fill="#5ab267"/><path d="m226 166h30v60h-30z" fill="#704c55"/><path d="m241 166h15v60h-15z" fill="#5a344b"/><path d="m241 0c-38.699 0-60 70.3-60 106 0 41.4 27.001 75 60 75s60-33.6 60-75c0-35.7-21.301-106-60-106z" fill="#8cd96b"/><path d="m301 106c0 41.4-27.001 75-60 75v-181c38.699 0 60 70.3 60 106z" fill="#5ab267"/><path d="m406 211h-165-115.254l7.866 60h107.388 90c16.538 0 30 13.462 30 30s-13.462 30-30 30h-30c-21.354 0-41.592 4.634-60 12.715-52.881 23.212-90 75.934-90 137.285v31h90 90v-31c0-33.091 26.909-60 60-60h15c57.891 0 106-47.109 106-105s-48.109-105-106-105z" fill="#a8ebfa"/><path d="m331 481c0-33.091 26.909-60 60-60h15c57.891 0 106-47.109 106-105s-48.109-105-106-105h-165v60h90c16.538 0 30 13.462 30 30s-13.462 30-30 30h-30c-21.354 0-41.592 4.634-60 12.715v168.285h90z" fill="#76e2f8"/><path d="m61 376h30v60h-30z" fill="#9b786f"/><path d="m76 376h15v60h-15z" fill="#704c55"/><path d="m76 151c-46.5 0-76 87.299-76 150 0 78.3 48.1 90 76 90s75-11.7 75-90c0-62.701-28.5-150-75-150z" fill="#8cd96b"/><path d="m151 301c0 78.3-47.1 90-75 90v-240c46.5 0 75 87.299 75 150z" fill="#5ab267"/></g></svg>