<svg height="512" viewBox="0 0 64 64" width="512" xmlns="http://www.w3.org/2000/svg"><g id="_24-bonsai" data-name="24-bonsai"><g fill="#fff"><path d="m52.01 48.889-.01.111-3 3-5.95-1.981a2.972 2.972 0 0 0 1.76-1.24l1.19-1.779v-1.01a4.014 4.014 0 0 0 1.08 1.13 9.95 9.95 0 0 0 4.93 1.769z"/><path d="m19 37-4 3h-5.56a21.731 21.731 0 0 0 4.41-4.42 1.86 1.86 0 0 1 .37-.42 1.812 1.812 0 0 1 .51-.23 1.8 1.8 0 0 0 .21-.08l.06.15z"/><path d="m25.36 33.359-4.36 3.641h-2l-4-2-.06-.15a14.89 14.89 0 0 0 2.56-1.19 2.773 2.773 0 0 0 1.5-1.66l1.99.01a6.664 6.664 0 0 0 4.3-1.72l1.71 1.71z"/><path d="m29.16 26.248 1.84 2.752-4 3-1.71-1.71c.28-.21.56-.45.85-.7a12.72 12.72 0 0 0 3.02-3.342z"/><path d="m35.91 25.178-1.91 3.822h-3l-1.84-2.751a6.43 6.43 0 0 0 .83-3.24s4.27.07 5.72-1.56c0 .03-.01.07-.01.11a1.4 1.4 0 0 1 -.18.48 2.665 2.665 0 0 0 -.31 2.51 1.855 1.855 0 0 0 .7.629z"/><path d="m42.62 29.919-4.62-.919h-4l1.91-3.821a5.721 5.721 0 0 0 1.09.421c.81.24 1.62.49 2.42.73a.778.778 0 0 1 .41.22.893.893 0 0 1 .09.56 2.7 2.7 0 0 0 1.31 1.961 9.4 9.4 0 0 0 1.39.848z"/></g><path d="m9.44 40c-.65.5-1.32.98-2.01 1.43-.43.28-.84.66-1.28.98a3.016 3.016 0 0 1 -1.81.59h-.27a3.067 3.067 0 0 1 -2.4-4.98 2.429 2.429 0 0 0 .24-.35.67.67 0 0 0 .13-.38.71.71 0 0 0 -.16-.38q-.12-.18-.24-.39a4.783 4.783 0 0 1 -.64-2.461v-.84a4.872 4.872 0 0 1 .83-2.77 11.308 11.308 0 0 1 6.05-4.121 20.512 20.512 0 0 1 4.12-.328l.2-.15c.18.24.37.47.55.69a12.939 12.939 0 0 0 3.4 2.821.765.765 0 0 1 .36.35 1.351 1.351 0 0 1 .02.45 1.669 1.669 0 0 0 .85 1.45 2.236 2.236 0 0 0 1.62.389 2.773 2.773 0 0 1 -1.5 1.66 14.89 14.89 0 0 1 -2.56 1.19 1.8 1.8 0 0 1 -.21.08 1.812 1.812 0 0 0 -.51.23 1.86 1.86 0 0 0 -.37.42 21.731 21.731 0 0 1 -4.41 4.42z" fill="#2f5224"/><path d="m35.91 4.958a.983.983 0 0 1 -.03.87 1.147 1.147 0 0 1 -.8.45 16.763 16.763 0 0 1 -2.73.38 2.172 2.172 0 0 1 -.36 1.342h-1a24.809 24.809 0 0 0 -5.55.82 18.827 18.827 0 0 0 -4.51 1.86 6.269 6.269 0 0 1 -2.29-1.05 1.387 1.387 0 0 1 -.64-1.03 1.454 1.454 0 0 1 .23-.7 4.974 4.974 0 0 1 1.72-1.75 1.291 1.291 0 0 0 .36-.25 1.562 1.562 0 0 0 .27-.53 7.031 7.031 0 0 1 5.48-4.27 9.082 9.082 0 0 1 1.88-.08 14.992 14.992 0 0 1 1.5.19c.42.07.84.14 1.26.24a9.538 9.538 0 0 1 4.71 2.791 2.271 2.271 0 0 1 .5.717z" fill="#2f5224"/><path d="m29.16 26.248a12.72 12.72 0 0 1 -3.02 3.341c-.29.25-.57.49-.85.7a6.664 6.664 0 0 1 -4.3 1.72l-1.99-.009a2.236 2.236 0 0 1 -1.62-.39 1.669 1.669 0 0 1 -.85-1.45 1.351 1.351 0 0 0 -.02-.45.765.765 0 0 0 -.36-.35 12.939 12.939 0 0 1 -3.4-2.821c-.18-.22-.37-.45-.55-.69a9.2 9.2 0 0 1 -.88-1.35 3.349 3.349 0 0 1 -.33-1.53l.01-1.4a6.247 6.247 0 0 1 1.8-4.44 11.56 11.56 0 0 1 3.39-2.73 3.973 3.973 0 0 0 1.05-.82 12.262 12.262 0 0 1 1.34-1.26 16.249 16.249 0 0 1 2.35-1.64 18.827 18.827 0 0 1 4.51-1.86 24.809 24.809 0 0 1 5.55-.819h4c.26.01.51.05.77.08a33.148 33.148 0 0 1 4.42.85 2.47 2.47 0 0 1 1.19.61c.35.37-.04 1.07-.37 1.46 0 0 4 0 4 3v1a13.06 13.06 0 0 0 -7.93 2.44c-1.02.78-1.96 1.97-1.61 3.18a3.166 3.166 0 0 1 .25.83c-1.45 1.63-5.72 1.56-5.72 1.56a6.43 6.43 0 0 1 -.83 3.238z" fill="#52a147"/><path d="m42.62 29.919a9.4 9.4 0 0 1 -1.39-.85 2.7 2.7 0 0 1 -1.31-1.961.893.893 0 0 0 -.09-.56.778.778 0 0 0 -.41-.22c-.8-.24-1.61-.49-2.42-.73a5.721 5.721 0 0 1 -1.09-.42 1.855 1.855 0 0 1 -.7-.63 2.665 2.665 0 0 1 .31-2.51 1.4 1.4 0 0 0 .18-.48c0-.04.01-.08.01-.11a3.166 3.166 0 0 0 -.25-.83c-.35-1.21.59-2.4 1.61-3.18a13.06 13.06 0 0 1 7.93-2.438 17.277 17.277 0 0 1 3.13.29 8.383 8.383 0 0 1 2.68.89 11.154 11.154 0 0 0 1.41.84 10 10 0 0 0 1.22.34 5.307 5.307 0 0 1 3.49 3.05 2.721 2.721 0 0 1 2.07 1.918c1.6 1.3 3.3 2.87 3.82 4.82a6.629 6.629 0 0 1 -.19 3.661 2.994 2.994 0 0 1 -1.44 2.02 2.877 2.877 0 0 1 -2.08-.06 5.831 5.831 0 0 0 -.71-.22 4.832 4.832 0 0 0 -.76-.03c-1.8-.02-3.39-1.46-5.18-1.29a23.854 23.854 0 0 1 -5.85-.06 13.536 13.536 0 0 1 -3.99-1.25z" fill="#7bc24f"/><path d="m46 45.989a2.22 2.22 0 0 1 -.35-1.33 16.884 16.884 0 0 1 -2.74-.38 1.151 1.151 0 0 1 -.76-.41c-.02-.01-.03-.03-.04-.04a1.017 1.017 0 0 1 -.03-.87 2.271 2.271 0 0 1 .5-.72 3.727 3.727 0 0 1 .35-.34 9.5 9.5 0 0 1 3-2 8.774 8.774 0 0 1 1.37-.45c.41-.1.83-.17 1.25-.24.5-.08 1-.16 1.5-.19a9.082 9.082 0 0 1 1.88.08 7.017 7.017 0 0 1 5.48 4.27 1.581 1.581 0 0 0 .28.53 1.4 1.4 0 0 0 .35.25 4.974 4.974 0 0 1 1.72 1.75 1.467 1.467 0 0 1 .24.7 1.4 1.4 0 0 1 -.65 1.03 8.409 8.409 0 0 1 -5 1.37 16.668 16.668 0 0 1 -2.34-.11 9.95 9.95 0 0 1 -4.93-1.77 4.014 4.014 0 0 1 -1.08-1.13z" fill="#52a147"/><path d="m43.05 50.019a2.966 2.966 0 0 1 -.52.08l-8.46.61a11.851 11.851 0 0 0 -8.24 4.091 5.782 5.782 0 0 0 -.83 1.2l1 1 2 2 2 2 2 2-10-2-9 2h-9v-1l8.65-1.73a1.371 1.371 0 0 0 .57-.27h.78v-2a10.357 10.357 0 0 1 1.02-3.99c1.35-2.91 4.53-6.441 11.98-7.01h9.91a5 5 0 0 0 3.56-1.48l1.53-1.52.15-.13a1.151 1.151 0 0 0 .76.41 16.884 16.884 0 0 0 2.74.38 2.22 2.22 0 0 0 .35 1.33v1.01l-1.19 1.78a2.972 2.972 0 0 1 -1.76 1.239z" fill="#9a6948"/><path d="m41.2 33.6 4.73 6.3a9.5 9.5 0 0 0 -3 2l-3.56-5.16a2.044 2.044 0 0 0 -1.16-1l-1.58-.53a1.973 1.973 0 0 0 -1.27 0l-9.72 3.24a2 2 0 0 1 -2.42-1l-.22-.45h-2l4.36-3.64 1.64 1.64 7.32-2.75a4.172 4.172 0 0 1 1.4-.25h2.28a4 4 0 0 1 3.2 1.6z" fill="#9a6948"/><path d="m39 59h-11l-2-2 4-1h2z" fill="#5d241d"/><path d="m15 54 .02.01a10.357 10.357 0 0 0 -1.02 3.99v2h-.78a1.234 1.234 0 0 0 .3-1.59.594.594 0 0 0 -.04-.08 4.648 4.648 0 0 0 -7.18-.64l-.3.31h-5l4-2 1.59-2.12a4.708 4.708 0 0 1 3.75-1.88h.24a4.65 4.65 0 0 1 2.6.79z" fill="#5d241d"/><path d="m13.85 35.579a1.86 1.86 0 0 1 .37-.42 1.812 1.812 0 0 1 .51-.23 1.8 1.8 0 0 0 .21-.08 14.89 14.89 0 0 0 2.56-1.19 2.773 2.773 0 0 0 1.5-1.659 2.236 2.236 0 0 1 -1.62-.39 1.669 1.669 0 0 1 -.85-1.45 1.351 1.351 0 0 0 -.02-.45.765.765 0 0 0 -.36-.35 12.958 12.958 0 0 1 -3.4-2.821c-.148-.181-.3-.373-.453-.567a11.027 11.027 0 0 0 -4.467 3.745 5.375 5.375 0 0 0 -.83 2.932v.889a5.3 5.3 0 0 0 .64 2.6q.12.222.24.412a.775.775 0 0 1 .16.4.736.736 0 0 1 -.13.4 2.579 2.579 0 0 1 -.24.37 3.322 3.322 0 0 0 -.67 2.031 3.361 3.361 0 0 0 .445 1.667c.685-.447 1.355-.923 1.995-1.418a21.731 21.731 0 0 0 4.41-4.421z" fill="#233d1b"/><path d="m20.31 8.9a1.562 1.562 0 0 0 .27-.53 7.032 7.032 0 0 1 5.48-4.27 9.082 9.082 0 0 1 1.88-.08 14.992 14.992 0 0 1 1.5.19c.42.07.84.14 1.26.24a9.359 9.359 0 0 1 3.792 1.937c.2-.037.393-.064.588-.107a1.147 1.147 0 0 0 .8-.45.983.983 0 0 0 .03-.87 2.271 2.271 0 0 0 -.5-.72 9.543 9.543 0 0 0 -4.71-2.79c-.42-.1-.84-.17-1.26-.24a14.992 14.992 0 0 0 -1.5-.19 9.082 9.082 0 0 0 -1.88.08 7.032 7.032 0 0 0 -5.48 4.27 1.562 1.562 0 0 1 -.27.53 1.291 1.291 0 0 1 -.36.25 4.974 4.974 0 0 0 -1.72 1.75 1.454 1.454 0 0 0 -.23.7 1.387 1.387 0 0 0 .64 1.03c.123.092.252.171.379.251a4.767 4.767 0 0 1 .931-.731 1.291 1.291 0 0 0 .36-.25z" fill="#39632c"/><path d="m53.01 45.889a9.95 9.95 0 0 1 -4.93-1.77 4.014 4.014 0 0 1 -1.08-1.13 2.22 2.22 0 0 1 -.35-1.33 16.884 16.884 0 0 1 -2.74-.38c-.07-.017-.14-.034-.209-.055a9.982 9.982 0 0 0 -.771.675 3.727 3.727 0 0 0 -.35.34 2.271 2.271 0 0 0 -.5.72 1.017 1.017 0 0 0 .03.87c.01.01.02.03.04.04a1.151 1.151 0 0 0 .76.41 16.884 16.884 0 0 0 2.74.38 2.22 2.22 0 0 0 .35 1.33 4.014 4.014 0 0 0 1.08 1.13 9.95 9.95 0 0 0 4.93 1.77 16.668 16.668 0 0 0 2.34.11 8.409 8.409 0 0 0 5-1.37 1.4 1.4 0 0 0 .65-1.029 1.467 1.467 0 0 0 -.24-.7 5.067 5.067 0 0 0 -.462-.648 9.958 9.958 0 0 1 -3.948.748 16.668 16.668 0 0 1 -2.34-.111z" fill="#44853b"/><path d="m57.017 29.88a7.859 7.859 0 0 1 -2.127-.78c-1.2-.7-2.057-1.912-3.287-2.565-1.433-.76-3.144-.662-4.757-.834s-3.4-.817-3.988-2.33c-.2-.531-.266-1.17-.714-1.52a1.912 1.912 0 0 0 -1.055-.3 23.13 23.13 0 0 0 -3.309-.022 7.588 7.588 0 0 1 -2.072-.052c0 .027-.008.058-.008.091a1.4 1.4 0 0 1 -.18.48 2.665 2.665 0 0 0 -.31 2.51 1.855 1.855 0 0 0 .7.63 5.721 5.721 0 0 0 1.09.412c.81.24 1.62.49 2.42.73a.778.778 0 0 1 .41.22.893.893 0 0 1 .09.56 2.7 2.7 0 0 0 1.31 1.961 9.4 9.4 0 0 0 1.39.85 13.536 13.536 0 0 0 3.99 1.25 23.854 23.854 0 0 0 5.85.06c1.79-.17 3.38 1.27 5.18 1.29a4.832 4.832 0 0 1 .76.03 5.831 5.831 0 0 1 .71.22 2.877 2.877 0 0 0 2.08.06 2.994 2.994 0 0 0 1.44-2.02 8.481 8.481 0 0 0 .341-1.739 4.247 4.247 0 0 1 -1.539.9 8.155 8.155 0 0 1 -4.415-.092z" fill="#52a147"/><path d="m62.82 27.148c-.52-1.95-2.22-3.52-3.82-4.82a2.721 2.721 0 0 0 -2.07-1.92 5.307 5.307 0 0 0 -3.49-3.05 10 10 0 0 1 -1.22-.34 11.154 11.154 0 0 1 -1.41-.84 8.383 8.383 0 0 0 -2.68-.89 17.277 17.277 0 0 0 -3.13-.288 13.06 13.06 0 0 0 -7.93 2.44c-1.02.78-1.96 1.97-1.61 3.18.029.086.064.174.1.262a6.388 6.388 0 0 1 .511-.442 13.06 13.06 0 0 1 7.929-2.44 17.277 17.277 0 0 1 3.13.29 8.383 8.383 0 0 1 2.68.89 11.154 11.154 0 0 0 1.41.84 10 10 0 0 0 1.22.34 5.307 5.307 0 0 1 3.49 3.05 2.721 2.721 0 0 1 2.07 1.918 10.879 10.879 0 0 1 3.715 4.518 4.276 4.276 0 0 0 1.256-.776 5.451 5.451 0 0 0 -.151-1.922z" fill="#8ee05b"/><path d="m18.472 25.534c.533.225.98.616 1.5.877a3.5 3.5 0 0 0 4.046-.749c1.174-1.291 1.251-3.347 2.524-4.542 1.116-1.048 2.8-1.121 4.238-1.655a2.549 2.549 0 0 0 .88-.5 4.883 4.883 0 0 0 .9-2.017 6.7 6.7 0 0 1 3.51-3.441 18.627 18.627 0 0 0 2.283-1.059 13.133 13.133 0 0 1 2.691-1.51c.318-.4.658-1.049.324-1.4a2.47 2.47 0 0 0 -1.19-.61c-.711-.192-1.43-.352-2.153-.491-.059.065-.116.13-.178.189a7.238 7.238 0 0 1 -2.6 1.417 12.53 12.53 0 0 0 -2.724 1.188c-1.064.7-1.851 1.776-2.943 2.436-2.721 1.646-6.5.313-9.231 1.95-.647.389-1.2.928-1.863 1.285a4.072 4.072 0 0 1 -4.371-.4 1.521 1.521 0 0 1 -.346-.379 9.565 9.565 0 0 0 -.973 1.008 6.247 6.247 0 0 0 -1.8 4.44l-.01 1.4a3.349 3.349 0 0 0 .33 1.53 9.2 9.2 0 0 0 .88 1.35c.076.1.153.193.231.29a8.975 8.975 0 0 0 1.842-.266c1.395-.344 2.884-.899 4.203-.341z" fill="#44853b"/><path d="m14.119 16.5a4.072 4.072 0 0 0 4.371.4c.665-.357 1.216-.9 1.863-1.285 2.727-1.637 6.51-.3 9.231-1.95 1.092-.66 1.879-1.732 2.943-2.436a12.53 12.53 0 0 1 2.724-1.188 7.238 7.238 0 0 0 2.6-1.417c.062-.059.119-.124.178-.189q-1.129-.212-2.269-.357c-.26-.03-.51-.07-.77-.08h-4a24.809 24.809 0 0 0 -5.55.82 18.827 18.827 0 0 0 -4.51 1.86 16.249 16.249 0 0 0 -2.35 1.64 12.262 12.262 0 0 0 -1.34 1.26 3.973 3.973 0 0 1 -1.05.82 12.752 12.752 0 0 0 -2.417 1.722 1.521 1.521 0 0 0 .346.38z" fill="#52a147"/><path d="m41 11c.015-.018.03-.039.046-.058a13.133 13.133 0 0 0 -2.691 1.51 18.627 18.627 0 0 1 -2.283 1.059 6.7 6.7 0 0 0 -3.51 3.441 4.883 4.883 0 0 1 -.9 2.017 2.549 2.549 0 0 1 -.88.5c-1.435.534-3.122.607-4.238 1.655-1.273 1.2-1.35 3.251-2.524 4.542a3.5 3.5 0 0 1 -4.046.749c-.517-.261-.964-.652-1.5-.877-1.319-.558-2.808 0-4.2.338a8.975 8.975 0 0 1 -1.842.266c.107.134.215.273.319.4a12.958 12.958 0 0 0 3.4 2.821.765.765 0 0 1 .36.35 1.351 1.351 0 0 1 .02.45 1.669 1.669 0 0 0 .85 1.45 2.236 2.236 0 0 0 1.619.387l1.99.01a6.664 6.664 0 0 0 4.3-1.72c.28-.21.56-.45.85-.7a12.735 12.735 0 0 0 3.02-3.341 6.43 6.43 0 0 0 .83-3.24s4.27.07 5.72-1.56a3.166 3.166 0 0 0 -.25-.83c-.35-1.21.59-2.4 1.61-3.18a13.06 13.06 0 0 1 7.93-2.439v-1c0-3-4-3-4-3z" fill="#2f5224"/><path d="m42.91 44.279a1.151 1.151 0 0 1 -.76-.41l-.15.131-1.507 1.5 1.089.467a1 1 0 0 1 -.077 1.868l-.505.165-13 1s-8 1-8 8a2.361 2.361 0 0 1 -1.973 2.329l-4.027.671h-.78a1.371 1.371 0 0 1 -.57.27l-8.65 1.73v1h9l9-2 10 2-2-2-2-2-2-2-1-1a5.782 5.782 0 0 1 .83-1.2 11.851 11.851 0 0 1 8.24-4.091l8.46-.61a2.873 2.873 0 0 0 .449-.063 2.974 2.974 0 0 0 1.831-1.257l1.19-1.779v-1.01a2.22 2.22 0 0 1 -.35-1.33 16.884 16.884 0 0 1 -2.74-.381z" fill="#704d35"/><path d="m23.22 37.449a2 2 0 0 0 2.42 1l9.72-3.24a1.973 1.973 0 0 1 1.27 0l1.58.53a2.044 2.044 0 0 1 1.16 1l3.56 5.16a9.5 9.5 0 0 1 3-2l-1.29-1.719-.812.406a1 1 0 0 1 -1.3-.38l-1-1.662a6.705 6.705 0 0 0 -8.474-2.678l-7.054 3.134 1-2-1.64-1.64-4.36 3.64h2z" fill="#704d35"/><path d="m42.62 29.92a9.4 9.4 0 0 1 -1.39-.85 5 5 0 0 1 -.655-.575l-2.375-.475a.985.985 0 0 0 -.2-.02h-2.941l1.216-2.433.272-.116a4.339 4.339 0 0 1 -.637-.271 2.248 2.248 0 0 1 -.395-.273c-.014.02-.041.027-.052.049l-1.522 3.044h-2.941a.237.237 0 0 0 -.06.012l-1.405-2.092-.138-.157c-.076.165-.149.331-.237.487s-.2.3-.3.455l1.181 1.763-3.351 2.515-1.012-1.012c-.129.106-.26.223-.388.319s-.27.205-.4.3l1.01 1.021-5.262 4.389h-1.638a.993.993 0 0 0 -.5.149l-2.855-1.586c-.234.1-.464.2-.7.287a1.8 1.8 0 0 1 -.21.08c-.1.033-.2.068-.29.109l3.155 1.761-2.933 2.2h-4q-.6.517-1.228 1c-.357.275-.735.525-1.1.786l.218.109a1 1 0 0 0 .443.105h6a1 1 0 0 0 .6-.2l3.733-2.8h1.667a1 1 0 0 0 .641-.232l.921-.768 3.512-2.926 1.553-1.295 3.706-2.779h6.567l4.513.9.38.081a1.046 1.046 0 0 0 .207.019.992.992 0 0 0 .876-.542 11.934 11.934 0 0 1 -1.256-.538z" fill="#664530"/><path d="m52.01 48.89c-.381-.041-.76-.105-1.136-.178l-2.145 2.144-4.456-1.484a2.876 2.876 0 0 1 -1.743.728l-.545.039.177.341a1 1 0 0 0 .572.489l5.951 1.98a1 1 0 0 0 1.022-.242l3.718-3.718c-.472-.013-.943-.039-1.415-.099z" fill="#664530"/></g></svg>