<?xml version="1.0"?>
<svg xmlns="http://www.w3.org/2000/svg" viewBox="0 0 64 64" width="512" height="512"><g id="_12-tree" data-name="12-tree"><path d="M33,1C44.96,1,54.7,8.38,54.99,17.57A17.009,17.009,0,0,0,31,23.99l-.01.02A24.45,24.45,0,0,0,24,23C13.37,23,4.69,29.62,4.05,38H4a15,15,0,0,1,7.41-23.28C13.39,6.9,22.3,1,33,1Z" style="fill:#5d802b"/><path d="M54.99,17.57A17,17,0,0,1,40.47,48.08,13.821,13.821,0,0,0,44,39c0-6.87-5.41-12.73-13.01-14.99l.01-.02a17.009,17.009,0,0,1,23.99-6.42Z" style="fill:#6c9137"/><path d="M40.47,48.08A18.717,18.717,0,0,1,35,52.36a22.726,22.726,0,0,1-6,2.14,24.793,24.793,0,0,1-5,.5C12.95,55,4,47.84,4,39a8.269,8.269,0,0,1,.05-1C4.69,29.62,13.37,23,24,23a24.45,24.45,0,0,1,6.99,1.01C38.59,26.27,44,32.13,44,39A13.821,13.821,0,0,1,40.47,48.08Z" style="fill:#8bba47"/><path d="M45,63l-7.12-.94L34,63H30l-3.88-.94L19,63l3.99-3.33A3.993,3.993,0,0,1,25.21,59H27a2.006,2.006,0,0,0,2-2V54.5a22.726,22.726,0,0,0,6-2.14V57a2.006,2.006,0,0,0,2,2h1.79a3.993,3.993,0,0,1,2.22.67Z" style="fill:#92563a"/><path d="M29.72,60.256A1.593,1.593,0,0,0,31,58.694a2,2,0,0,1,1.671-1.973L35,56.333V52.36a22.726,22.726,0,0,1-6,2.14V57a2.006,2.006,0,0,1-2,2H25.21a3.993,3.993,0,0,0-2.22.67L19,63l7-.924V62Z" style="fill:#5d241d"/><path d="M41.01,59.67A3.993,3.993,0,0,0,38.79,59H37a2.006,2.006,0,0,1-2-2v1a2,2,0,0,0,2,2h1.333a2,2,0,0,1,1.2.4l3.04,2.28L45,63Z" style="fill:#c47952"/><path d="M11.355,30.4a2.128,2.128,0,0,0,1.164.51,8.314,8.314,0,0,0,3.549-.11,4.7,4.7,0,0,0,2.58,4.63,4.246,4.246,0,0,0,2.832.406,2.784,2.784,0,0,0,2.062-1.767c1.075,1.394,3.058,1.918,4.9,1.929a3.4,3.4,0,0,0,1.9-.416A2.579,2.579,0,0,0,31.3,34.2a4.737,4.737,0,0,0-.29-3.648,5.223,5.223,0,0,0,3.906-1.046,3.532,3.532,0,0,0,.993-3.354A21.847,21.847,0,0,0,30.99,24.01,24.45,24.45,0,0,0,24,23a23.345,23.345,0,0,0-11.863,3.133A8.529,8.529,0,0,0,11.1,28.627,1.893,1.893,0,0,0,11.355,30.4Z" style="fill:#acd949"/><path d="M7.174,33.68a2.387,2.387,0,0,0,1.737,1.232,7.3,7.3,0,0,0,2.223-.007,3.286,3.286,0,0,0-.567,3.726A4.305,4.305,0,0,0,13.8,40.863a5.911,5.911,0,0,0,3.932-.9c.866,2.162,3.413,3.364,5.8,3.288,1.533-.048,3.247-.734,3.684-2.165a8.961,8.961,0,0,0,4.4,1.211,3.431,3.431,0,0,0,1.574-.279,3.559,3.559,0,0,0,1.6-2.664,13.557,13.557,0,0,0,.236-3.21,4.014,4.014,0,0,0,3.9-1.423,2.428,2.428,0,0,0-1.011-3.581,2.751,2.751,0,0,0,1.938-1.889,18.726,18.726,0,0,0-3.937-3.1,3.532,3.532,0,0,1-.993,3.354,5.223,5.223,0,0,1-3.906,1.046A4.737,4.737,0,0,1,31.3,34.2a2.579,2.579,0,0,1-.956,1.38,3.4,3.4,0,0,1-1.9.416c-1.84-.011-3.823-.535-4.9-1.929a2.784,2.784,0,0,1-2.062,1.767,4.246,4.246,0,0,1-2.832-.406,4.7,4.7,0,0,1-2.58-4.63,8.314,8.314,0,0,1-3.549.11,2.128,2.128,0,0,1-1.164-.51,1.893,1.893,0,0,1-.255-1.775,8.529,8.529,0,0,1,1.037-2.494A18.653,18.653,0,0,0,8,29.416a7.276,7.276,0,0,0-.965,2.838A2.728,2.728,0,0,0,7.174,33.68Z" style="fill:#82bd00"/><path d="M41.663,31.507a2.126,2.126,0,0,1-1.048,1.385A5.012,5.012,0,0,1,42,35.843a2.512,2.512,0,0,1-1.644,2.58,6.98,6.98,0,0,1,1.081,3.137,3.869,3.869,0,0,1-1.1,3.049c-.954.886-2.083.267-2.983.857-.794.52-1.346,2.42-1.8,3.25a2.377,2.377,0,0,1-.686.879,2.125,2.125,0,0,1-2.285-.377,2.279,2.279,0,0,0-1.452-.6c-.89.108-1.219,1.241-1.877,1.862a1.959,1.959,0,0,1-2.275.267c-.778-.454-1.4-1.489-2.272-1.278a3.925,3.925,0,0,0-1.032.657c-1.152.719-2.665-.094-3.541-1.144a2.233,2.233,0,0,0-.852-.76,1.825,1.825,0,0,0-.8-.047c-1.7.162-3.559.407-5-.538a6.369,6.369,0,0,1-1.869-2.25,1.013,1.013,0,0,0-.392-.449,1,1,0,0,0-.625,0,3.371,3.371,0,0,1-2.821-.352c-1.3-1.042-.926-2.543-.311-3.8a1.89,1.89,0,0,1-2.37-.482,4.641,4.641,0,0,1-.94-2.473c-.016-.112-.02-.224-.034-.336-.019.167-.055.33-.068.5A8.269,8.269,0,0,0,4,39c0,8.84,8.95,16,20,16a24.793,24.793,0,0,0,5-.5,22.726,22.726,0,0,0,6-2.14,18.717,18.717,0,0,0,5.47-4.28A13.821,13.821,0,0,0,44,39,13.469,13.469,0,0,0,41.663,31.507Z" style="fill:#5c8500"/><path d="M5.092,40.311a1.89,1.89,0,0,0,2.37.482c-.615,1.256-.991,2.757.311,3.8a3.371,3.371,0,0,0,2.821.352,1,1,0,0,1,.625,0,1.013,1.013,0,0,1,.392.449,6.369,6.369,0,0,0,1.869,2.25c1.437.945,3.295.7,5,.538a1.825,1.825,0,0,1,.8.047,2.233,2.233,0,0,1,.852.76c.876,1.05,2.389,1.863,3.541,1.144a3.925,3.925,0,0,1,1.032-.657c.872-.211,1.494.824,2.272,1.278a1.959,1.959,0,0,0,2.275-.267c.658-.621.987-1.754,1.877-1.862a2.279,2.279,0,0,1,1.452.6,2.125,2.125,0,0,0,2.285.377,2.377,2.377,0,0,0,.686-.879c.457-.83,1.009-2.73,1.8-3.25.9-.59,2.029.029,2.983-.857a3.869,3.869,0,0,0,1.1-3.049,6.98,6.98,0,0,0-1.081-3.137A2.512,2.512,0,0,0,42,35.843a5.012,5.012,0,0,0-1.382-2.951,2.126,2.126,0,0,0,1.048-1.385,16.036,16.036,0,0,0-1.817-2.253,2.751,2.751,0,0,1-1.938,1.889,2.428,2.428,0,0,1,1.011,3.581,4.014,4.014,0,0,1-3.9,1.423,13.557,13.557,0,0,1-.236,3.21,3.559,3.559,0,0,1-1.6,2.664,3.431,3.431,0,0,1-1.574.279,8.961,8.961,0,0,1-4.4-1.211c-.437,1.431-2.151,2.117-3.684,2.165-2.384.076-4.931-1.126-5.8-3.288a5.911,5.911,0,0,1-3.932.9,4.305,4.305,0,0,1-3.234-2.232,3.286,3.286,0,0,1,.567-3.726,7.3,7.3,0,0,1-2.223.007A2.387,2.387,0,0,1,7.174,33.68a2.728,2.728,0,0,1-.143-1.426A7.276,7.276,0,0,1,8,29.416,14.223,14.223,0,0,0,4.118,37.5c.014.112.018.224.034.336A4.641,4.641,0,0,0,5.092,40.311Z" style="fill:#6d9e00"/><path d="M35.869,23.1a4.588,4.588,0,0,0,5.258-.457,7.73,7.73,0,0,0,3.555,2.694,4.51,4.51,0,0,0,3.225.116,2.5,2.5,0,0,0,1.613-2.592c1.7,1.086,3.741,1.979,5.693,1.466a4.41,4.41,0,0,0,2.947-2.636,4.249,4.249,0,0,0,.267-1.28,16.982,16.982,0,0,0-24.589-.278A4.557,4.557,0,0,0,35.869,23.1Z" style="fill:#6d9e00"/><path d="M45.967,31.855a1.236,1.236,0,0,1,.728.327,3.921,3.921,0,0,0,5.243-.28,12.768,12.768,0,0,0,2.24-2.7.725.725,0,0,1,.22-.237.765.765,0,0,1,.516-.021,7.55,7.55,0,0,0,4.584-.406,4.748,4.748,0,0,0,2.413-2.512,16.956,16.956,0,0,0-3.484-5.616,4.249,4.249,0,0,1-.267,1.28,4.41,4.41,0,0,1-2.947,2.636c-1.952.513-3.992-.38-5.693-1.466a2.5,2.5,0,0,1-1.613,2.592,4.51,4.51,0,0,1-3.225-.116,7.73,7.73,0,0,1-3.555-2.694,4.425,4.425,0,0,1-7.289-2.51A17,17,0,0,0,31,23.99l-.01.02a18.717,18.717,0,0,1,11.5,8.883,6.419,6.419,0,0,0,2.94-.824A1.219,1.219,0,0,1,45.967,31.855Z" style="fill:#5c8500"/><path d="M59.251,36.391c-.339-.034-.666.026-.856-.257a2.96,2.96,0,0,1-1.019,2.719A5.19,5.19,0,0,1,54.608,40a5.925,5.925,0,0,1-2.475-.148c-.742-.221-1.284-.916-1.994-.485-.727.439-1.286,1.114-2.061,1.525a7.167,7.167,0,0,1-2.293.771,6.157,6.157,0,0,1-2.058-.044A14.29,14.29,0,0,1,40.47,48.08,17.007,17.007,0,0,0,62.6,35.634l-.033.02A5.823,5.823,0,0,1,59.251,36.391Z" style="fill:#3c5619"/><path d="M61.911,26.024A4.748,4.748,0,0,1,59.5,28.536a7.55,7.55,0,0,1-4.584.406.765.765,0,0,0-.516.021.725.725,0,0,0-.22.237,12.768,12.768,0,0,1-2.24,2.7,3.921,3.921,0,0,1-5.243.28,1.236,1.236,0,0,0-.728-.327,1.219,1.219,0,0,0-.537.214,6.419,6.419,0,0,1-2.94.824A13.237,13.237,0,0,1,44,39a12.958,12.958,0,0,1-.273,2.621,6.157,6.157,0,0,0,2.058.044,7.167,7.167,0,0,0,2.293-.771c.775-.411,1.334-1.086,2.061-1.525.71-.431,1.252.264,1.994.485A5.925,5.925,0,0,0,54.608,40a5.19,5.19,0,0,0,2.768-1.149A2.96,2.96,0,0,0,58.4,36.134c.19.283.517.223.856.257a5.823,5.823,0,0,0,3.317-.737l.033-.02a16.869,16.869,0,0,0-.69-9.61Z" style="fill:#4c6d00"/><path d="M41.431,18.244a1.97,1.97,0,0,0,.724,1.179A6.384,6.384,0,0,0,46.567,21a3.058,3.058,0,0,0,1.875-.567,2.915,2.915,0,0,0,.787-2.148,6.494,6.494,0,0,0,3.249.38A3.783,3.783,0,0,0,54.3,17.97a2,2,0,0,0,.457-.534,16.942,16.942,0,0,0-17.151-.208,3.467,3.467,0,0,0,.72.451A6.482,6.482,0,0,0,41.431,18.244Z" style="fill:#82bd00"/><path d="M17.687,14.384c-.034-.044-.061-.092-.1-.135.036.043.063.091.1.135.088-.04.177-.078.263-.121a1.113,1.113,0,0,1,.563-.167,1.232,1.232,0,0,1,.635.361c1.355,1.112,3.251,1.216,5,1.24a23.57,23.57,0,0,0,5.316-.361,8.79,8.79,0,0,0,4.646-2.46c1.744,1.064,3.92,1.034,5.961.947a12.63,12.63,0,0,0,3.216-.42,4.4,4.4,0,0,0,2.563-1.875,10.092,10.092,0,0,0,8.072,1.236,17.989,17.989,0,0,0-7.894-8.437,5.994,5.994,0,0,1-.63,1.036A6.585,6.585,0,0,1,40.682,7.7a12.457,12.457,0,0,1-5.3-.941A4.047,4.047,0,0,1,33.2,10.248a9.119,9.119,0,0,1-4.178.959c-2.393.091-5.088-.308-6.538-2.213a4.179,4.179,0,0,1-3.751,2.8,9.069,9.069,0,0,1-4.771-1.207c-.184-.093-.368-.194-.55-.3a14.6,14.6,0,0,0-1.849,3.962,4.255,4.255,0,0,0,1.662.817A6.95,6.95,0,0,0,17.687,14.384Z" style="fill:#4c6d00"/><path d="M18.729,11.79a4.179,4.179,0,0,0,3.751-2.8c1.45,1.9,4.145,2.3,6.538,2.213a9.119,9.119,0,0,0,4.178-.959,4.047,4.047,0,0,0,2.186-3.487,12.457,12.457,0,0,0,5.3.941A6.585,6.585,0,0,0,45.4,5.363a5.994,5.994,0,0,0,.63-1.036,25.251,25.251,0,0,0-8.017-2.865,5.518,5.518,0,0,1-1.806,1.4,5.547,5.547,0,0,1-3.946.286,2.284,2.284,0,0,1-.99,1.819,3.9,3.9,0,0,1-2.02.658,6.131,6.131,0,0,1-3.435-.778.553.553,0,0,0-.351-.107.611.611,0,0,0-.276.176,3.315,3.315,0,0,1-2.3.614,11.606,11.606,0,0,1-3.16-.513,5.715,5.715,0,0,1-.587-.217,18.8,18.8,0,0,0-5.736,5.479c.182.106.366.207.55.3A9.069,9.069,0,0,0,18.729,11.79Z" style="fill:#5c8500"/><path d="M22.891,5.534a3.315,3.315,0,0,0,2.3-.614.611.611,0,0,1,.276-.176.553.553,0,0,1,.351.107,6.131,6.131,0,0,0,3.435.778,3.9,3.9,0,0,0,2.02-.658,2.284,2.284,0,0,0,.99-1.819,5.547,5.547,0,0,0,3.946-.286,5.518,5.518,0,0,0,1.806-1.4A28.223,28.223,0,0,0,33,1,26.14,26.14,0,0,0,19.144,4.8a5.715,5.715,0,0,0,.587.217A11.606,11.606,0,0,0,22.891,5.534Z" style="fill:#6d9e00"/><path d="M45.855,11.528A4.4,4.4,0,0,1,43.292,13.4a12.63,12.63,0,0,1-3.216.42c-2.041.087-4.217.117-5.961-.947a8.79,8.79,0,0,1-4.646,2.46,23.57,23.57,0,0,1-5.316.361c-1.754-.024-3.65-.128-5-1.24a1.232,1.232,0,0,0-.635-.361,1.113,1.113,0,0,0-.563.167c-.086.043-.175.081-.263.121a5,5,0,0,1,.634,3.9,6.845,6.845,0,0,1-2.045,4.094,7.962,7.962,0,0,1-2.045,1.187,27.864,27.864,0,0,1-3.5,1.258c-.6.171-1.212.279-1.806.451-.511.148-.507.451-.79.883A5.638,5.638,0,0,1,3.328,28.5a4.3,4.3,0,0,1-2.279-.7C1.018,28.2,1,28.6,1,29a14.954,14.954,0,0,0,3,9h.05C4.69,29.62,13.37,23,24,23a24.45,24.45,0,0,1,6.99,1.01l.01-.02a17.009,17.009,0,0,1,23.99-6.42,13.517,13.517,0,0,0-1.063-4.806A10.092,10.092,0,0,1,45.855,11.528Z" style="fill:#324d11"/><path d="M8.134,26.161c.283-.432.279-.735.79-.883.594-.172,1.209-.28,1.806-.451a27.864,27.864,0,0,0,3.5-1.258,7.962,7.962,0,0,0,2.045-1.187,6.845,6.845,0,0,0,2.045-4.094,5,5,0,0,0-.634-3.9,6.95,6.95,0,0,1-4.466.678,4.255,4.255,0,0,1-1.662-.817c-.047.159-.108.314-.149.475a14.717,14.717,0,0,0-1.56.612,7.689,7.689,0,0,1,.762.584A4.45,4.45,0,0,1,12.19,18.7a4.041,4.041,0,0,1-2.132,3.749A6.543,6.543,0,0,1,5.623,23,1.867,1.867,0,0,1,3.987,24.91a4.7,4.7,0,0,1-2.314-.328,14.866,14.866,0,0,0-.624,3.223,4.3,4.3,0,0,0,2.279.7A5.638,5.638,0,0,0,8.134,26.161Z" style="fill:#5c8500"/><path d="M3.987,24.91A1.867,1.867,0,0,0,5.623,23a6.543,6.543,0,0,0,4.435-.549A4.041,4.041,0,0,0,12.19,18.7a4.45,4.45,0,0,0-1.578-2.789,7.689,7.689,0,0,0-.762-.584,15.021,15.021,0,0,0-8.177,9.25A4.7,4.7,0,0,0,3.987,24.91Z" style="fill:#6d9e00"/><path d="M15.843,25.6a5.531,5.531,0,0,0,2.592.656,2.66,2.66,0,0,0,1.215,2.459,4.051,4.051,0,0,0,3.378.752,3.068,3.068,0,0,0,2.279-2.483,3.865,3.865,0,0,0,2.72.629,2.152,2.152,0,0,0,1.779-1.951,2.855,2.855,0,0,0,1.809-.289,1.722,1.722,0,0,0,.642-.943c-.415-.151-.837-.292-1.267-.42A24.45,24.45,0,0,0,24,23a23.955,23.955,0,0,0-8.865,1.675,1.034,1.034,0,0,0,.123.432A1.4,1.4,0,0,0,15.843,25.6Z" style="fill:#ccf27a"/><path d="M52.049,20.837A8.817,8.817,0,0,0,53.6,23.4a6.472,6.472,0,0,1,.535,1.061,4.577,4.577,0,0,0,1.081-.134,4.41,4.41,0,0,0,2.947-2.636,3.941,3.941,0,0,0,.2-.762,16.807,16.807,0,0,0-2.174-1.746,5.848,5.848,0,0,0-1.979-1.149,3.676,3.676,0,0,1-1.506.589A2.588,2.588,0,0,0,52.049,20.837Z" style="fill:#97db00"/><path d="M58.36,20.926a3.941,3.941,0,0,1-.2.762,4.41,4.41,0,0,1-2.947,2.636,4.577,4.577,0,0,1-1.081.134,25.559,25.559,0,0,1,1.036,4.525,7.405,7.405,0,0,0,4.33-.447,4.8,4.8,0,0,0,2.206-2.11,9.954,9.954,0,0,0-.7-1.96A12.42,12.42,0,0,0,58.36,20.926Z" style="fill:#89c700"/><path d="M59.5,28.536a7.405,7.405,0,0,1-4.33.447c.015.071.027.143.042.214.427,1.972,1.461,4.093,3.452,4.69a1.886,1.886,0,0,0,1.5-.085,2.054,2.054,0,0,0,.636-.7,8.641,8.641,0,0,0,.907-6.676A4.8,4.8,0,0,1,59.5,28.536Z" style="fill:#7fb800"/><path d="M53.344,18.14a2.119,2.119,0,0,0-.643.48,3.676,3.676,0,0,0,1.506-.589A1.388,1.388,0,0,0,53.344,18.14Z" style="fill:#bdff2b"/><path d="M34.916,29.51a3.232,3.232,0,0,0,1-1.824,8.1,8.1,0,0,0-4.175-.627,2.066,2.066,0,0,0-1.422.63,1.978,1.978,0,0,0-.18,1.816c.184.461.647.733,1,1.057A5.149,5.149,0,0,0,34.916,29.51Z" style="fill:#bdff2b"/><path d="M36.64,28.016c-.233-.129-.481-.225-.725-.33a3.232,3.232,0,0,1-1,1.824,5.149,5.149,0,0,1-3.779,1.052l.044.038a31.545,31.545,0,0,1,2.539,2.863c.749.919,1.506,1.86,2.331,2.723a3.7,3.7,0,0,0,2.868-1.462,2.428,2.428,0,0,0-1.011-3.581,2.512,2.512,0,0,0,1.451-.994A10.624,10.624,0,0,0,36.64,28.016Z" style="fill:#9fde14"/><path d="M37.908,31.143a2.428,2.428,0,0,1,1.011,3.581,3.7,3.7,0,0,1-2.868,1.462,12.051,12.051,0,0,0,3.1,2.436,2.791,2.791,0,0,0,1.513.364c-.1-.19-.2-.38-.308-.563a2.46,2.46,0,0,0,1.637-2.355,7.2,7.2,0,0,0-.153-1.1,5.811,5.811,0,0,0-1.222-2.079A1.563,1.563,0,0,0,41,32.635a10.252,10.252,0,0,0-1.64-2.486A2.512,2.512,0,0,1,37.908,31.143Z" style="fill:#87bd11"/><path d="M50.284,11.389c2.287-1.855-1.529-4.656-2.754-5.616a18.292,18.292,0,0,0-1.656-1.151,5.483,5.483,0,0,1-.471.741A6.585,6.585,0,0,1,40.682,7.7a12.457,12.457,0,0,1-5.3-.941,3.138,3.138,0,0,1-.124.976l.081.052a26.24,26.24,0,0,0,10.285,4.046,3.283,3.283,0,0,0,.231-.307c.231.153.473.287.715.418.5.038,1,.06,1.509.051A3.485,3.485,0,0,0,50.284,11.389Z" style="fill:#7db500"/><path d="M40.682,7.7A6.585,6.585,0,0,0,45.4,5.363a5.483,5.483,0,0,0,.471-.741,17.623,17.623,0,0,0-5.11-2.157,16.362,16.362,0,0,0-3.3-.451,5.262,5.262,0,0,1-1.258.852,5.545,5.545,0,0,1-2.808.492,2.317,2.317,0,0,0-.384.975,2.9,2.9,0,0,0,.669,2.117,6.118,6.118,0,0,0,1.571,1.287,3.138,3.138,0,0,0,.124-.976A12.457,12.457,0,0,0,40.682,7.7Z" style="fill:#90d100"/><path d="M36.21,2.866a5.262,5.262,0,0,0,1.258-.852c-.3-.011-.6-.017-.9-.01a4.861,4.861,0,0,0-2.182.444,2.706,2.706,0,0,0-.984.91A5.545,5.545,0,0,0,36.21,2.866Z" style="fill:#99de00"/><path d="M45.624,11.835c.315.041.63.087.946.111-.242-.131-.484-.265-.715-.418A3.283,3.283,0,0,1,45.624,11.835Z" style="fill:#4c6d00"/></g></svg>
