<svg height="512" viewBox="0 0 64 64" width="512" xmlns="http://www.w3.org/2000/svg"><g id="_26tree" data-name="26tree"><path d="m35.61 56.39a15.462 15.462 0 0 1 3.39-.39 15.971 15.971 0 0 1 3.23.35c6.79 1.42 12.77 6.65 12.77 6.65h-32s5.88-5.15 12.61-6.61z" fill="#82bd00"/><path d="m29.61 47.06.54.84-.15.1h-7a5 5 0 0 1 -5-5h4a2.006 2.006 0 0 0 2 2h4.54a10.173 10.173 0 0 0 1.07 2.06z" fill="#75462f"/><path d="m46 35a12.526 12.526 0 0 1 -5.91 10.95 7.218 7.218 0 0 1 -3.79 1.05h-.17l-1.18-1.72c-.3-.43-.57-.88-.83-1.33l5.24-2.09c2.8-1.12 3.64-3.84 3.64-6.86z" fill="#75462f"/><path d="m36.13 47 6.18 9-.08.35a15.971 15.971 0 0 0 -3.23-.35 15.462 15.462 0 0 0 -3.39.39l-5.46-8.49-.54-.84a10.173 10.173 0 0 1 -1.07-2.06 11 11 0 0 1 -.54-4 5 5 0 0 0 -1-7 21.274 21.274 0 0 1 1.04-5.99 36.34 36.34 0 0 1 1.96-5.01h4a29.557 29.557 0 0 0 -2 9v3.8a16.756 16.756 0 0 0 2.12 8.15c.26.45.53.9.83 1.33z" fill="#92563a"/><path d="m27 34a5 5 0 0 1 -3 9h-6a5 5 0 0 1 -1.94-9.61 4.974 4.974 0 0 1 9.88 0 5.041 5.041 0 0 1 1.06.61z" fill="#6d9e00"/><path d="m48.7 28.14a3.574 3.574 0 0 1 2.3 3.29 3.665 3.665 0 0 1 -3.75 3.57h-4.5a3.665 3.665 0 0 1 -3.75-3.57 3.574 3.574 0 0 1 2.3-3.29 3.75 3.75 0 0 1 7.4 0z" fill="#4c6d00"/><path d="m40.86 7.54a7.993 7.993 0 0 1 -2.86 15.46h-12a8.1 8.1 0 0 1 -.99-.06 8 8 0 0 1 .24-15.9 7.993 7.993 0 0 1 15.61.5z" fill="#82bd00"/><path d="m28.368 27h-.588a1.782 1.782 0 0 1 -1.78-1.78v-2.22a7.495 7.495 0 0 1 -2-.26v2.48a3.783 3.783 0 0 0 3.764 3.78c.09-.333.178-.669.276-.988q.16-.524.328-1.012z" fill="#75462f"/><path d="m36 23v4a4 4 0 0 1 -3.958 4c-.024.339-.042.675-.042 1v1a6.006 6.006 0 0 0 6-6v-4z" fill="#75462f"/><path d="m40.86 7.54a7.993 7.993 0 0 1 -2.86 15.46h-12a8.1 8.1 0 0 1 -.99-.06 8 8 0 0 1 .24-15.9 7.993 7.993 0 0 1 15.61.5z" fill="#3c5619"/><circle cx="38" cy="15" fill="#4c6d00" r="8"/><path d="m40.866 20.1a1.944 1.944 0 0 1 -.446-3.223 7.962 7.962 0 0 0 2.155-8.434 7.919 7.919 0 0 0 -1.715-.907 7.983 7.983 0 0 1 -10.72 8.928 7.792 7.792 0 0 0 .285 1.093 7.984 7.984 0 0 0 13 3.313 9.721 9.721 0 0 1 -2.559-.77z" fill="#3c5619"/><circle cx="33" cy="9" fill="#5c8500" r="8"/><circle cx="26" cy="15" fill="#6d9e00" r="8"/><path d="m30 5a7.954 7.954 0 0 0 -4.575 1.443c-.066.2-.122.393-.172.6.247-.028.495-.043.747-.043a7.97 7.97 0 0 1 7.747 9.962 7.94 7.94 0 0 0 3.828-1.4 7.986 7.986 0 0 0 -7.575-10.562z" fill="#4c6d00"/><path d="m26 12a8 8 0 0 1 7.6 5.5 8 8 0 1 0 -15.192 0 8 8 0 0 1 7.592-5.5z" fill="#82bd00"/><path d="m27 34a5 5 0 0 1 -3 9h-6a5 5 0 0 1 -1.94-9.61 4.974 4.974 0 0 1 9.88 0 5.041 5.041 0 0 1 1.06.61z" fill="#3c5619"/><circle cx="24" cy="38" fill="#5c8500" r="5"/><circle cx="21" cy="34" fill="#acd949" r="5"/><circle cx="18" cy="38" fill="#82bd00" r="5"/><path d="m17 36a5 5 0 0 1 5 4.976 4.993 4.993 0 1 0 -9-2.976v.024a4.979 4.979 0 0 1 4-2.024z" fill="#acd949"/><path d="m25.805 32.692a2.511 2.511 0 0 1 -1.366 1.053 4.952 4.952 0 0 0 -8.294-.894 5.281 5.281 0 0 0 -.084.54 5 5 0 0 1 6.939 4.609 5.085 5.085 0 0 1 -.061.609 4.906 4.906 0 0 0 2.866-5.917z" fill="#82bd00"/><path d="m26.3 38.732a4.941 4.941 0 0 0 1.7-3.708 5 5 0 0 0 -2.059-1.633 5.085 5.085 0 0 1 .059.609 5 5 0 0 1 -3.061 4.609 4.715 4.715 0 0 1 -1.939 3.368 4.9 4.9 0 0 0 6.1-.086l-.037-.008a1.848 1.848 0 0 1 -.763-3.151z" fill="#4c6d00"/><path d="m38 53c-6.631-3.684-9-17-8.179-23.138a4.25 4.25 0 0 1 3.157-3.782c.507-1.791 1.022-3.08 1.022-3.08h-4a36.34 36.34 0 0 0 -1.96 5.01 21.274 21.274 0 0 0 -1.04 5.99 5 5 0 0 1 1 7 11 11 0 0 0 .54 4 10.173 10.173 0 0 0 1.07 2.06l.54.84 5.46 8.49a15.462 15.462 0 0 1 3.39-.39 15.971 15.971 0 0 1 3.23.35l.08-.35-1.977-2.878c-1.352-.122-2.333-.122-2.333-.122z" fill="#75462f"/><path d="m33 60a3.374 3.374 0 0 1 -.883-2.522 35.576 35.576 0 0 0 -9.117 5.522h32s-.928-.808-2.455-1.871c-6.045.186-18.056.36-19.545-1.129z" fill="#5c8500"/></g></svg>