<svg height="512pt" viewBox="-8 0 512 512.00048" width="512pt" xmlns="http://www.w3.org/2000/svg"><path d="m364.714844.0117188c-73.074219-.9531248-134.285156 59.3515622-134.375 132.4296872-.074219 63.398438 44.335937 116.433594 103.746094 129.621094 13.054687 2.898438 22.289062 14.5625 22.289062 27.933594v12.058594c0 3.144531 3.867188 4.648437 5.992188 2.328124l37.070312-40.484374c2.957031-3.230469 6.601562-5.773438 10.695312-7.332032 49.9375-19.019531 85.425782-67.34375 85.425782-123.960937 0-72.644531-58.421875-131.648438-130.84375-132.5937502zm0 0" fill="#ff6b6b"/><path d="m364.996094 262.0625c-59.410156-13.1875-103.824219-66.222656-103.746094-129.621094.082031-67.300781 52.007812-123.769531 117.292969-131.527344-4.542969-.535156-9.15625-.8398432-13.828125-.9023432-73.074219-.9531248-134.285156 59.3554692-134.375 132.4335932-.074219 63.394532 44.335937 116.433594 103.746094 129.617188 13.054687 2.898438 22.289062 14.5625 22.289062 27.9375v12.058594c0 3.140625 3.867188 4.644531 5.992188 2.324218l22.871093-24.976562c-3.40625-8.578125-10.816406-15.25-20.242187-17.34375zm0 0" fill="#ee5253"/><path d="m452.972656 133.390625c0 49.136719-39.835937 88.972656-88.972656 88.972656s-88.972656-39.835937-88.972656-88.972656 39.835937-88.972656 88.972656-88.972656 88.972656 39.835937 88.972656 88.972656zm0 0" fill="#e4eaf8"/><path d="m305.933594 133.390625c0-43.863281 31.75-80.289063 73.519531-87.605469-5.023437-.882812-10.179687-1.367187-15.453125-1.367187-49.140625 0-88.972656 39.835937-88.972656 88.972656s39.832031 88.972656 88.972656 88.972656c5.273438 0 10.429688-.484375 15.453125-1.367187-41.769531-7.316406-73.519531-43.742188-73.519531-87.605469zm0 0" fill="#c7d2e5"/><path d="m389.96875 103.222656c0 14.34375-11.625 25.972656-25.96875 25.972656s-25.96875-11.628906-25.96875-25.972656 11.625-25.96875 25.96875-25.96875 25.96875 11.625 25.96875 25.96875zm0 0" fill="#ffcdbf"/><path d="m376.664062 103.222656c0-6.671875 2.515626-12.753906 6.652344-17.351562-4.753906-5.289063-11.648437-8.617188-19.316406-8.617188-14.34375 0-25.972656 11.625-25.972656 25.96875s11.628906 25.972656 25.972656 25.972656c7.667969 0 14.5625-3.328124 19.316406-8.617187-4.136718-4.601563-6.652344-10.683594-6.652344-17.355469zm0 0" fill="#ffbeab"/><path d="m393.5625 149.773438h-59.128906c-7.6875 0-13.976563 6.289062-13.976563 13.976562v47.222656c12.875 7.242188 27.71875 11.390625 43.539063 11.390625 15.824218 0 30.667968-4.148437 43.542968-11.390625v-47.222656c0-7.6875-6.289062-13.976562-13.976562-13.976562zm0 0" fill="#feca57"/><path d="m379.453125 220.996094c-24.640625-4.316406-45.789063-18.769532-58.996094-38.898438v28.875c18.015625 9.757813 37.320313 13.824219 58.996094 10.023438zm0 0" fill="#f4b537"/><path d="m356.25 421.082031-27.234375-44.476562c-13.152344-21.480469-41.484375-28.289063-62.964844-15.140625l-34.710937 21.257812c-13.960938 8.546875-21.722656 23.507813-21.835938 38.832032-.046875 6.417968-6.007812 11.226562-12.28125 9.871093-14.140625-3.050781-27.59375-9.6875-38.914062-19.816406-17.664063-15.804687-36.644532-36.238281-51.78125-60.957031-15.136719-24.71875-24.707032-50.914063-30.753906-73.832032-3.914063-14.828124-3.667969-29.976562.148437-44.074218 1.660156-6.148438 8.554687-9.277344 14.273437-6.480469 13.628907 6.675781 30.296876 6.488281 44.128907-1.980469l34.714843-21.253906c21.476563-13.152344 28.289063-41.484375 15.136719-62.964844l-27.230469-44.476562c-13.152343-21.476563-41.488281-28.289063-62.964843-15.136719l-34.710938 21.253906c-14.742187 9.023438-22.566406 25.199219-21.777343 41.398438.417968 8.597656-2.390626 17.050781-7.949219 23.625-25.6875 30.402343-35.996094 72.003906-25.441407 111.984375 8.757813 33.199218 22.621094 71.144531 44.546876 106.953125 21.929687 35.8125 49.425781 65.40625 75.011718 88.304687 30.816406 27.574219 72.554688 37.304688 111.3125 28.246094 8.378906-1.960938 17.1875-.621094 24.652344 3.660156 14.074219 8.066406 32.035156 8.449219 46.773438-.574218l34.714843-21.257813c21.472657-13.152344 28.285157-41.488281 15.136719-62.964844zm0 0" fill="#54a0ff"/><path d="m208.9375 424.8125c6.152344 2.976562 12.59375 5.191406 19.191406 6.613281 6.273438 1.355469 12.234375-3.449219 12.28125-9.867187.113282-15.328125 7.875-30.289063 21.835938-38.835938l34.710937-21.253906c2.695313-1.652344 5.5-2.988281 8.371094-4.019531-12.605469-4.476563-27.050781-3.46875-39.277344 4.019531l-34.714843 21.253906c-13.960938 8.546875-21.722657 23.507813-21.832032 38.835938-.007812 1.144531-.214844 2.238281-.566406 3.253906zm0 0" fill="#338def"/><path d="m154.5625 473.972656c-25.585938-22.898437-53.082031-52.492187-75.007812-88.304687-21.925782-35.808594-35.789063-73.753907-44.550782-106.953125-10.550781-39.980469-.246094-81.582032 25.445313-111.984375 5.554687-6.574219 8.363281-15.027344 7.945312-23.625-.785156-16.199219 7.039063-32.375 21.777344-41.398438l34.714844-21.253906c2.695312-1.652344 5.5-2.988281 8.371093-4.019531-12.605468-4.476563-27.054687-3.46875-39.28125 4.019531l-34.710937 21.253906c-14.738281 9.023438-22.566406 25.199219-21.777344 41.398438.417969 8.597656-2.390625 17.050781-7.949219 23.625-25.6875 30.402343-35.992187 72.003906-25.441406 111.984375 8.757813 33.199218 22.621094 71.144531 44.550782 106.953125 21.925781 35.8125 49.421874 65.40625 75.007812 88.304687 27.363281 24.484375 63.335938 34.886719 98.1875 30.570313-24.429688-3.046875-47.996094-13.316407-67.28125-30.570313zm0 0" fill="#338def"/><path d="m329.015625 376.605469c-12.917969-21.09375-40.472656-28.027344-61.800781-15.8125l75.023437 122.523437c20.578125-13.441406 26.925781-41.140625 14.011719-62.234375zm0 0" fill="#8ac2ff"/><path d="m275.625 374.53125c23.121094-14.160156 24.085938-15.0625 29.703125-17.085938-12.398437-4.402343-26.339844-3.394531-38.113281 3.355469zm0 0" fill="#54a0ff"/><path d="m170.164062 202.300781c20.578126-13.441406 26.929688-41.140625 14.011719-62.234375l-27.234375-44.476562c-12.914062-21.09375-40.472656-28.027344-61.800781-15.808594zm0 0" fill="#8ac2ff"/><path d="m103.550781 93.515625 21.335938-13.0625c2.695312-1.652344 5.5-2.988281 8.371093-4.019531-8.046874-2.859375-17.09375-3.523438-25.886718-1.46875-4.296875 1.007812-8.410156 2.628906-12.226563 4.820312zm0 0" fill="#54a0ff"/></svg>