<svg id="Capa_1" enable-background="new 0 0 496.997 496.997" height="512" viewBox="0 0 496.997 496.997" width="512" xmlns="http://www.w3.org/2000/svg"><g><g><path d="m491.14 108.992-1.72-1.72c-7.81-7.81-20.46-7.82-28.27-.04l6.88-6.89c7.64-7.83 7.58-20.37-.18-28.12l-1.72-1.72c-7.82-7.82-20.49-7.82-28.31 0l.18-.19c3.79-3.88 5.68-8.92 5.68-13.97 0-5.12-1.95-10.25-5.86-14.15l-1.72-1.73c-7.82-7.81-20.5-7.81-28.31 0 3.91-3.91 5.86-9.03 5.86-14.15s-1.95-10.25-5.86-14.16l-1.72-1.72c-7.82-7.81-20.5-7.81-28.31 0l-7.21 7.21-14.51-4.05c-12.54-3.5-25.98-1.18-36.61 6.33l-20.38 14.39c-11.52 8.14-20.05 19.82-24.3 33.26l-17.5 55.35c-2.43 7.7-6.69 14.71-12.4 20.42l-18.36 18.36-11.4 11.4 108.22 108.22 18.46-18.46c5.8-5.8 12.78-10.29 20.46-13.16l13.47-5.05c8.57-3.2 16.58-7.71 23.78-13.35l46.35-36.36c10.22-8.01 19.05-17.66 26.12-28.56l7.23-11.14h.01l11.09-17.08.86-.86c7.81-7.82 7.81-20.49 0-28.31z" fill="#ffcebf"/><path d="m468.03 100.342-6.88 6.89-9.58 9.57c7.82-7.81 7.82-20.49 0-28.3l-1.72-1.73c-.012-.012-.024-.024-.036-.036-1.957-1.947-5.151-1.867-7.103.085l-22.62 22.611c-1.87 1.87-2.899 4.354-2.91 6.998-.013 3.076-1.735 5.936-4.618 7.009-5.362 1.995-10.382-1.886-10.382-6.966 0-6.66 2.59-12.93 7.31-17.64l16.12-16.12 12.209-12.209c7.818-7.818 20.492-7.818 28.311-.001l1.72 1.72c7.759 7.749 7.819 20.289.179 28.119z" fill="#ffb09e"/><path d="m270.835 369.271-38.612 38.611-81.384 81.384c-4.211 4.211-11.039 4.211-15.25 0l-127.46-127.459c-4.211-4.211-4.211-11.039 0-15.25l89.018-89.018 30.977-30.977c9.391-9.391 24.6-9.391 33.991 0l108.72 108.718c9.386 9.387 9.386 24.605 0 33.991z" fill="#b3dafe"/><path d="m270.835 369.271-38.612 38.611-22.334-22.335c-9.391-9.381-9.391-24.6-.01-33.981l-.289.289c-4.97 4.97-13.024 4.97-17.993 0l-18.642-18.632c-4.97-4.97-4.97-13.034 0-18.003l1.048-1.038-35.049-35.049c-5.798-5.798-12.774-10.279-20.458-13.163l-13.473-5.04c-2.674-.998-5.309-2.136-7.874-3.393l30.977-30.977c9.391-9.391 24.6-9.391 33.991 0l108.718 108.72c9.391 9.391 9.391 24.6 0 33.991z" fill="#93cef9"/><g fill="#ffb09e"><path d="m407.786 12.157-1.716-1.717c-7.824-7.824-20.498-7.824-28.312 0l-4.104 4.103-.004-.002-3.102 3.102v-.001l-14.513-4.055c-12.533-3.501-25.976-1.176-36.604 6.331l-20.383 14.397c-6.19 4.372-11.508 9.777-15.773 15.921l19.878-14.04c10.629-7.507 24.072-9.832 36.604-6.331l14.513 4.055-18.52 18.52c-1.956 1.956-4.604 3.105-7.37 3.08-4.376-.04-7.9 3.675-7.545 8.116.322 4.03 3.936 6.957 7.978 6.879 6.631-.127 12.836-2.764 17.538-7.465l34.81-34.8c.01-.02.03-.03.04-.05l1.418-1.418c1.957-1.957 5.168-2.056 7.128-.103.012.012.024.024.036.036l1.726 1.716c7.814 7.814 7.814 20.488 0 28.312l16.277-16.277c7.814-7.821 7.814-20.495 0-28.309z"/><path d="m443.68 56.342c0 5.05-1.89 10.09-5.68 13.97l-.18.19-13.15 13.14c4.48-7.89 3.43-18.6-3.13-25.18l-1.72-1.72c-.012-.012-.024-.024-.036-.036-1.959-1.95-5.158-1.869-7.112.086l-16.672 16.68-9.68 9.68c-1.695 1.694-2.617 3.945-2.589 6.333.029 2.558-1.123 5.046-3.364 6.28-5.777 3.183-11.637-.903-11.637-6.383 0-6.36 2.48-12.34 6.98-16.84l9.68-9.68 22.4-22.4c7.81-7.81 20.49-7.81 28.31 0l1.72 1.73c3.91 3.9 5.86 9.03 5.86 14.15z"/><path d="m491.14 137.302-.86.86-11.09 17.08h-.01c7.25-11.16 5.52-24.18-2.29-32l-1.72-1.72c-.012-.012-.025-.025-.037-.037-1.962-1.951-5.171-1.856-7.127.101l-15.874 15.874c-1.612 1.612-2.658 3.77-2.642 6.049.03 4.417-3.765 7.962-8.267 7.514-3.924-.39-6.793-3.903-6.73-7.846.098-6.096 2.518-11.806 6.837-16.125l5.57-5.57 14.21-14.21c.01-.01.03-.03.04-.04 7.81-7.78 20.46-7.77 28.27.04l1.72 1.72c7.81 7.82 7.81 20.49 0 28.31z"/></g></g><g><path d="m270.509 161.7-18.361-18.361c-5.711-5.711-9.964-12.714-12.399-20.415l-17.499-55.352c-4.249-13.442-12.784-25.122-24.299-33.255l-20.382-14.397c-10.629-7.507-24.072-9.832-36.604-6.331l-14.513 4.055-7.208-7.208c-7.818-7.818-20.492-7.818-28.31 0l-1.721 1.721c-7.818 7.818-7.818 20.492 0 28.31-7.818-7.818-20.492-7.818-28.31 0l-1.721 1.721c-7.818 7.818-7.818 20.492 0 28.31-7.818-7.818-20.492-7.818-28.31 0l-1.721 1.721c-7.818 7.818-7.818 20.492 0 28.31l6.743 6.743c-7.818-7.818-20.492-7.818-28.31 0l-1.721 1.721c-7.818 7.818-7.818 20.492 0 28.31l.86.861 18.326 28.219c7.075 10.895 15.902 20.546 26.124 28.564l46.351 36.358c7.193 5.642 15.21 10.144 23.772 13.349l13.478 5.045c7.681 2.875 14.656 7.363 20.455 13.162l49.132 49.132 108.22-108.22z" fill="#ffcebf"/><g fill="#ffb09e"><path d="m19.616 123.55 16.529 16.529c5.817 5.817 15.248 5.821 21.072.01.078-.078.156-.155.233-.232 3.049-3.043 3.05-7.98.003-11.026l-21.56-21.56c-7.817-7.817-20.492-7.818-28.309-.001l-1.722 1.722c-2.665 2.665-4.399 5.9-5.247 9.31 6.592-1.638 13.849.096 19.001 5.248z"/><path d="m42.904 86.776 26.239 26.239c5.817 5.817 15.248 5.821 21.072.01.078-.078.156-.155.233-.232 3.049-3.043 3.05-7.98.003-11.026l-31.269-31.269c-7.818-7.818-20.492-7.818-28.31 0l-1.721 1.721c-2.665 2.665-4.399 5.9-5.247 9.31 6.59-1.639 13.848.095 19 5.247z"/><path d="m72.935 56.745 28.998 28.998c5.817 5.817 15.248 5.821 21.072.01.078-.078.156-.155.233-.232 3.05-3.043 3.05-7.98.003-11.026l-34.028-34.028c-7.818-7.818-20.492-7.818-28.31 0l-1.721 1.721c-2.665 2.665-4.399 5.9-5.247 9.31 6.591-1.639 13.848.095 19 5.247z"/><path d="m252.148 143.339c-5.712-5.711-9.964-12.714-12.399-20.415l-17.499-55.352c-4.249-13.442-12.784-25.122-24.298-33.255l-20.383-14.397c-10.629-7.507-24.072-9.832-36.604-6.331l-14.513 4.055.003.009-7.212-7.212c-7.814-7.824-20.488-7.824-28.312 0l-1.716 1.717c-2.665 2.665-4.401 5.898-5.249 9.311 6.597-1.637 13.852.09 19.001 5.249l37.015 37.015c5.821 5.821 15.259 5.821 21.08 0 3.168-3.168 3.168-8.305 0-11.473l-23.873-23.873c8.582.153 16.937 2.751 24.103 7.812l20.383 14.397c11.515 8.133 20.049 19.814 24.299 33.255l17.498 55.352c2.435 7.701 6.687 14.704 12.399 20.415l60.434 60.434 16.278-16.278z"/></g><path d="m225.868 335.577 61.423-48.048 49.631-63.006c4.97-4.97 4.97-13.028 0-17.997l-18.635-18.635c-4.97-4.97-13.028-4.97-17.997 0l-111.054 111.054c-4.97 4.97-4.97 13.028 0 17.997l18.635 18.635c4.97 4.97 13.028 4.97 17.997 0z" fill="#cde2ff"/><path d="m336.92 224.525-8.569 10.878-7.708 5.399c4.97-4.97 4.97-13.034 0-18.003l-18.632-18.632c-3.982-3.982-9.94-5.409-14.72-3.273l13.003-13.004c4.97-4.97 13.024-4.97 17.993 0l18.632 18.632c4.971 4.97 4.971 13.033.001 18.003z" fill="#b3dafe"/><path d="m226.162 335.284 108.726-108.726c9.385-9.385 24.601-9.385 33.986 0l119.997 119.997c4.211 4.211 4.211 11.039 0 15.25l-127.462 127.462c-4.211 4.211-11.039 4.211-15.25 0l-119.997-119.998c-9.385-9.384-9.385-24.6 0-33.985z" fill="#b3dafe"/><path d="m368.874 226.558c-9.385-9.385-24.601-9.385-33.986 0l-16.278 16.278c9.385-9.385 24.601-9.385 33.986 0l121.873 121.874c2.348 2.348 3.303 5.748 2.522 8.975l11.879-11.879c4.211-4.211 4.211-11.039 0-15.25z" fill="#93cef9"/></g><circle cx="221.779" cy="303.034" fill="#26a6fe" r="7.382"/></g></svg>