<svg id="Capa_1" enable-background="new 0 0 497.015 497.015" height="512" viewBox="0 0 497.015 497.015" width="512" xmlns="http://www.w3.org/2000/svg"><g><g><path d="m282.889 332.137c-1.223 0-2.214.991-2.214 2.214v132.464c0 3.566 2.375 6.836 5.864 7.573 4.856 1.026 9.136-2.65 9.136-7.327v-132.71c0-1.223-.991-2.214-2.214-2.214z" fill="#fef1da"/></g><path d="m249.003 306.096 46.094 25.481c1.093.604 1.286 2.094.384 2.957l-2.306 2.205c-24.917 23.824-64.23 23.621-88.899-.46l-1.788-1.745c-.888-.866-.688-2.344.397-2.944z" fill="#fdd79b"/><path d="m224.475 337.278c-1.778-1.736-1.379-4.695.796-5.898l34.735-19.202-11.002-6.082-46.118 25.494c-1.086.6-1.285 2.078-.397 2.944l1.788 1.745c14.209 13.87 33.311 19.814 51.687 17.813-11.493-2.42-22.486-8.026-31.489-16.814z" fill="#fccd7f"/><path d="m303.958 98.975-171.469 55.678-28.823 54.728 17.047 46.594 128.29 51.12 128.18-51.29 28.642-60.381z" fill="#fdd79b"/><path d="m123.626 195.398-8.651-7.49-11.309 21.473 17.047 46.594 128.29 51.12 2.511-1.005z" fill="#fccd7f"/><path d="m490.873 196.335c3.49 5.97.86 13.65-5.56 16.21l-108.13 43.26c-26.63-42.78-74.07-71.26-128.18-71.26-54.18 0-101.67 28.55-128.29 71.43l-108.99-43.44c-6.43-2.56-9.08-10.24-5.58-16.22l19.89-34.02-6.09-33.51c-1.01-5.56 2.24-11.01 7.61-12.77l35.76-11.71 10.25-45.12c1.19-5.27 5.94-8.95 11.33-8.81l44.84 1.2 21.22-33.37c2.52-3.96 7.23-5.96 11.83-5.01l39.99 8.26 40.68-20.27c3.18-1.58 6.92-1.58 10.1 0l40.68 20.27 39.99-8.26c4.6-.95 9.31 1.05 11.83 5.01l21.22 33.37 44.84-1.2c5.39-.14 10.14 3.54 11.33 8.81l10.25 45.12 33.89 10.04c5.33 1.58 8.72 6.79 8.01 12.3l-4.62 35.65z" fill="#f37c7c"/><g><g id="XMLID_297_"><g><g id="XMLID_299_"><g><path d="m63.313 104.305 98.72 107.81c-9.15 6.47-17.55 13.93-25.04 22.23l-110.96-72.05-6.09-33.51c-1.01-5.56 2.24-11.01 7.61-12.77z" fill="#ee6161"/><path d="m19.943 128.785 6.09 33.51 110.96 72.05c.514-.57 1.043-1.125 1.566-1.687.196-.21.389-.423.587-.632 2.605-2.768 5.315-5.434 8.12-7.998.117-.106.233-.213.35-.319 1.421-1.291 2.859-2.564 4.328-3.8l-28.317-24.51-92.897-80.424-3.177 1.04c-.671.22-1.309.498-1.91.826-3.605 1.97-5.867 5.764-5.883 9.871-.003.685.057 1.378.183 2.073z" fill="#e94444"/><g fill="#ee6161"><path d="m202.773 21.455 26.6 164.36c-11.51 1.49-22.61 4.28-33.15 8.22l-66.49-142.46 21.22-33.37c2.52-3.96 7.23-5.96 11.83-5.01z"/><path d="m367.273 51.575 1-.03v.03l-66.49 142.46c-10.54-3.94-21.64-6.73-33.15-8.22l26.6-164.36-.04-.2 39.03-8.06c4.6-.95 9.31 1.05 11.83 5.01z"/><path d="m467.583 114.345c5.33 1.58 8.72 6.79 8.01 12.3l-4.62 35.65.28.47-110.24 71.58c-.47-.52-.94-1.03-1.42-1.54-5.22-5.64-10.88-10.88-16.91-15.65-1.64-1.31-3.31-2.58-5.01-3.81-.56-.42-1.13-.83-1.71-1.23l98.52-107.58z"/></g></g></g></g></g><path d="m308.389 497.015h-30.427c-4.002 0-7.246-3.244-7.246-7.246v-5.841c0-17.926 7.358-35.065 20.353-47.412 1.18-1.121 3.032-1.121 4.213 0 12.995 12.347 20.353 29.487 20.353 47.412v5.841c0 4.002-3.244 7.246-7.246 7.246z" fill="#f37c7c"/></g></g></svg>