<?xml version="1.0" encoding="UTF-8"?>
<svg xmlns="http://www.w3.org/2000/svg" xmlns:xlink="http://www.w3.org/1999/xlink" version="1.1" id="Layer_1" x="0px" y="0px" viewBox="0 0 400 400" style="enable-background:new 0 0 400 400;" xml:space="preserve" width="512" height="512">
<style type="text/css">
	.st0{fill:#606060;}
	.st1{fill:url(#SVGID_1_);}
	.st2{fill:url(#SVGID_2_);}
</style>
<g id="Layer_2_1_">
	<g>
		<g id="Layer_1-2_9_">
			<g id="_50_9_">
				<path class="st0" d="M302.7,153.7c4.2,8.2,6.2,23.6,6.2,46.8c0,22.7-2,38.1-6.2,46.3c-4,8-12,12-23.9,12      c-12.2,0-20.2-4-24.2-11.9s-6-23.4-6-46.3c0-23.2,2-38.6,6-46.8c4.2-8.2,12.2-12.4,24.2-12.4S298.7,145.5,302.7,153.7z"/>
				<path class="st0" d="M200,0L200,0C89.5,0,0,89.5,0,200l0,0c0,110.5,89.5,200,200,200l0,0c110.5,0,200-89.5,200-200l0,0      C400,89.5,310.5,0,200,0z M182,249.6c0,19.9-7.2,33.1-21.4,40.1c-13.9,7-29.6,9.2-53.5,9.2c-23.2,0-41.8-1.5-55.5-4.2      c-4.7-1.2-6.5-3-6.5-7.2v-25.1c0-2.2,1.2-3.5,3.7-3.5H102c13.7,0,22.9-1.5,27.1-4.5c4.5-3,6.7-8.5,6.7-16.4v-1.8      c0-8.2-2.2-13.7-6.5-16.4c-4.2-3-13.4-4.5-27.4-4.5H52.7c-5.2,0-7.7-2-7.7-6.2v-27.6l6.5-75c0-2.1,1.7-3.7,3.7-3.7      c0.1,0,0.2,0,0.3,0H174c2.7,0,4,1.2,4,3.7V139c0,2.5-1.2,3.7-4,3.7H89.8l-3,33.9c8.7-1.2,17.6-1.8,26.4-1.7      c20.9,0,35.4,2.5,48.6,9.5s20.2,20.4,20.2,40.1V249.6z M339.9,278.2c-11.7,15.7-29.9,20.7-61,20.7c-31.6,0-49.3-5-61.3-20.7      c-11.7-15.9-14.9-38.1-14.9-77.7c0-39.8,3.5-62.2,15.2-78.2s29.4-21.2,61-21.2c31.1,0,49.3,5.2,61,21.2s15.2,38.4,15.2,78.2      C355,240.1,351.5,262.2,339.9,278.2L339.9,278.2z"/>
			</g>
		</g>
	</g>
	<g>
		<g id="Layer_1-2_8_">
			<g id="_50_8_">
				<linearGradient id="SVGID_1_" gradientUnits="userSpaceOnUse" x1="58.5775" y1="58.5775" x2="341.4225" y2="341.4225">
					<stop offset="0" style="stop-color:#29C2FF"/>
					<stop offset="1" style="stop-color:#0690BA"/>
				</linearGradient>
				<path class="st1" d="M302.7,153.7c4.2,8.2,6.2,23.6,6.2,46.8c0,22.7-2,38.1-6.2,46.3c-4,8-12,12-23.9,12      c-12.2,0-20.2-4-24.2-11.9s-6-23.4-6-46.3c0-23.2,2-38.6,6-46.8c4.2-8.2,12.2-12.4,24.2-12.4S298.7,145.5,302.7,153.7z"/>
				<linearGradient id="SVGID_2_" gradientUnits="userSpaceOnUse" x1="58.5775" y1="58.5775" x2="341.4225" y2="341.4225">
					<stop offset="0" style="stop-color:#29C2FF"/>
					<stop offset="1" style="stop-color:#0690BA"/>
				</linearGradient>
				<path class="st2" d="M200,0L200,0C89.5,0,0,89.5,0,200l0,0c0,110.5,89.5,200,200,200l0,0c110.5,0,200-89.5,200-200l0,0      C400,89.5,310.5,0,200,0z M182,249.6c0,19.9-7.2,33.1-21.4,40.1c-13.9,7-29.6,9.2-53.5,9.2c-23.2,0-41.8-1.5-55.5-4.2      c-4.7-1.2-6.5-3-6.5-7.2v-25.1c0-2.2,1.2-3.5,3.7-3.5H102c13.7,0,22.9-1.5,27.1-4.5c4.5-3,6.7-8.5,6.7-16.4v-1.8      c0-8.2-2.2-13.7-6.5-16.4c-4.2-3-13.4-4.5-27.4-4.5H52.7c-5.2,0-7.7-2-7.7-6.2v-27.6l6.5-75c0-2.1,1.7-3.7,3.7-3.7      c0.1,0,0.2,0,0.3,0H174c2.7,0,4,1.2,4,3.7V139c0,2.5-1.2,3.7-4,3.7H89.8l-3,33.9c8.7-1.2,17.6-1.8,26.4-1.7      c20.9,0,35.4,2.5,48.6,9.5s20.2,20.4,20.2,40.1V249.6z M339.9,278.2c-11.7,15.7-29.9,20.7-61,20.7c-31.6,0-49.3-5-61.3-20.7      c-11.7-15.9-14.9-38.1-14.9-77.7c0-39.8,3.5-62.2,15.2-78.2s29.4-21.2,61-21.2c31.1,0,49.3,5.2,61,21.2s15.2,38.4,15.2,78.2      C355,240.1,351.5,262.2,339.9,278.2L339.9,278.2z"/>
			</g>
		</g>
	</g>
</g>
</svg>
