<svg id="Capa_1" enable-background="new 0 0 496.999 496.999" height="512" viewBox="0 0 496.999 496.999" width="512" xmlns="http://www.w3.org/2000/svg"><g><path d="m396.844 467.918h-296.69c-16.926 0-32.109-10.411-38.209-26.2l-6.652-17.217 195.579-8.951 190.833 8.951-6.652 17.217c-6.1 15.789-21.283 26.2-38.209 26.2z" fill="#ddeafb"/><path d="m267.769 467.919-52.84-43.42-39.45-32.41h156.27l-16.66 32.41-20.7 40.26c-.6 1.16-1.32 2.22-2.14 3.16z" fill="#cbe2ff"/><path d="m413.396 424.501-6.652 17.217c-6.1 15.789-21.283 26.2-38.209 26.2h28.309c16.926 0 32.109-10.411 38.209-26.2l6.652-17.217z" fill="#cbe2ff"/><path d="m266.02 176.582h-35.042v-37.117c0-9.677 7.844-17.521 17.521-17.521 9.676 0 17.521 7.844 17.521 17.521z" fill="#fdb441"/><path d="m248.499 121.944c-3.195 0-6.181.869-8.76 2.363 5.232 3.031 8.761 8.676 8.761 15.158v37.117h17.52v-37.117c0-9.676-7.844-17.521-17.521-17.521z" fill="#fea613"/><path d="m496.999 397.619c0 .84-.2 1.71-.63 2.54-7.73 14.95-23.16 24.34-40 24.34h-415.74c-8.42 0-16.49-2.35-23.42-6.56-6.93-4.22-12.71-10.31-16.58-17.78-1.91-3.68.76-8.07 4.91-8.07h25.19l226.663-11.155 213.617 11.155h20.45c3.21 0 5.54 2.63 5.54 5.53z" fill="#ecf4ff"/><path d="m331.749 392.089-16.66 32.41h-100.16l-39.45-32.41z" fill="#ddeafb"/><path d="m491.463 392.091h-28.308c4.144 0 6.814 4.39 4.91 8.07-7.739 14.952-23.169 24.34-40.005 24.34h28.309c16.835 0 32.266-9.388 40.004-24.34 1.905-3.68-.766-8.07-4.91-8.07z" fill="#ddeafb"/><path d="m471.009 392.089h-440.28c0-11.13.83-22.07 2.43-32.76.452-3.052 3.408-4.492 3.987-7.5.38-1.979-1.653-5.54-1.217-7.5 21.81-98.62 109.76-172.38 214.94-172.38s193.13 73.76 214.94 172.38c.553 2.485-1.798 4.985-1.335 7.5.458 2.485 3.732 4.985 4.105 7.5 1.6 10.69 2.43 21.63 2.43 32.76z" fill="#fee45a"/><path d="m250.872 171.952c-4.178 0-8.326.128-12.447.357 115.787 6.455 207.692 102.38 207.692 219.782h24.893c0-11.133-.826-22.073-2.421-32.762-.333-2.232-3.716-5.29-4.115-7.5-.506-2.798 1.952-4.74 1.341-7.5-21.815-98.615-109.765-172.377-214.943-172.377z" fill="#fed402"/><path d="m203.693 392.091h156.267l-37.356 72.664c-4.655 9.054-16.479 11.501-24.345 5.038z" fill="#5f99d7"/><path d="m337.44 392.091-37.356 72.664c-.803 1.562-1.831 2.913-3.004 4.07l1.179.968c7.866 6.463 19.69 4.016 24.345-5.038l37.356-72.664z" fill="#3c87d0"/><g><path d="m468.579 359.329h-435.42c.75-5.06 1.67-10.06 2.77-15h429.88c1.1 4.94 2.02 9.94 2.77 15z" fill="#fdb441"/></g><path d="m440.918 344.329c1.093 4.94 2.019 9.942 2.774 15h24.887c-.126-.853-.265-1.702-.401-2.552-.341-2.012-.95-5.893-1.928-10.379-.146-.691-.298-1.38-.45-2.069z" fill="#fea613"/><g><g><path d="m217.19 83.948c-4.143 0-7.5-3.358-7.5-7.5v-29.683c0-4.142 3.357-7.5 7.5-7.5s7.5 3.358 7.5 7.5v29.683c0 4.142-3.357 7.5-7.5 7.5z" fill="#cbe2ff"/></g><g><path d="m249.944 83.948c-4.143 0-7.5-3.358-7.5-7.5v-45.377c0-4.142 3.357-7.5 7.5-7.5s7.5 3.358 7.5 7.5v45.377c0 4.142-3.357 7.5-7.5 7.5z" fill="#cbe2ff"/></g><g><path d="m282.697 83.948c-4.143 0-7.5-3.358-7.5-7.5v-29.683c0-4.142 3.357-7.5 7.5-7.5s7.5 3.358 7.5 7.5v29.683c0 4.142-3.357 7.5-7.5 7.5z" fill="#cbe2ff"/></g></g></g></svg>