<svg id="Capa_1" enable-background="new 0 0 512 512" height="512" viewBox="0 0 512 512" width="512" xmlns="http://www.w3.org/2000/svg"><path d="m497.48 350.826c.806-38.324-8.749-74.471-16.487-97.181-5.453-16.001-9.004-32.59-10.732-49.406-11.803-114.862-103.228-204.239-214.261-204.239s-202.458 89.377-214.261 204.239c-1.728 16.816-5.28 33.405-10.732 49.406-7.739 22.709-17.293 58.857-16.487 97.181z" fill="#433f43"/><path d="m429.049 185.25c1.737 16.819 5.283 33.402 10.739 49.403 9.006 26.438 20.474 71.083 15.194 116.173h42.497c.806-38.322-8.747-74.469-16.483-97.179-5.456-16.001-9.012-32.595-10.739-49.413-9.411-91.634-69.502-167.052-149.804-193.802 59.071 35.436 100.872 99.675 108.596 174.818z" fill="#2d2b2d"/><path d="m497.335 337.117c-29.913 6.071-68.749-4.322-111.622-26.344h-259.426c-42.873 22.022-81.71 32.416-111.622 26.344-2.677 66.508 22.438 144.041 142.57 170.464 6.407 1.41 12.486-3.464 12.486-10.024v-103.915c26.423 12.302 55.595 19.138 86.279 19.138s59.856-6.836 86.279-19.138v103.915c0 6.56 6.08 11.434 12.486 10.024 120.132-26.423 145.247-103.956 142.57-170.464z" fill="#ffd597"/><path d="m354.766 507.582c-6.407 1.41-12.486-3.464-12.486-10.024v-16.808c85.963-28.569 111.405-88.201 113.837-144.184 15.03 2.759 28.886 3.055 41.219.552 2.676 66.507-22.439 144.04-142.57 170.464z" fill="#fcc16d"/><g fill="#fdb0a0"><circle cx="411.089" cy="296.537" r="47.503"/><circle cx="100.911" cy="296.537" r="47.503"/></g><path d="m405.865 223.515v120.877c0 41.382-16.778 78.851-43.896 105.969-27.118 27.119-64.587 43.897-105.969 43.897-82.765 0-149.865-67.1-149.865-149.865v-120.878c0-22.203 6.335-42.925 17.289-60.469h265.153c10.953 17.544 17.288 38.266 17.288 60.469z" fill="#ffcec0"/><g><path d="m256 449.736c-19.852 0-38.72-4.733-54.566-13.688-12.376-6.994-16.739-22.695-9.745-35.071 6.993-12.376 22.696-16.739 35.071-9.745 8.018 4.531 18.403 7.027 29.24 7.027s21.221-2.496 29.239-7.027c12.375-6.994 28.077-2.631 35.071 9.745s2.631 28.077-9.745 35.071c-15.845 8.954-34.713 13.688-54.565 13.688z" fill="#c83146"/></g><g><path d="m310.563 436.047c-15.848 8.951-34.71 13.692-54.563 13.692-12.21 0-24.053-1.788-35.037-5.252 16.88-1.104 32.82-5.691 46.512-13.426 12.374-6.989 16.737-22.694 9.738-35.068-.184-.327-.378-.654-.582-.971 3.086-1.032 5.977-2.299 8.614-3.791 12.374-6.989 28.068-2.626 35.068 9.748 6.987 12.374 2.624 28.078-9.75 35.068z" fill="#ab283a"/></g><path d="m405.865 223.515v20.834h-203.764c-9.707 0-18.668-4.537-24.41-12.098-5.712 7.51-14.703 12.098-24.39 12.098h-47.166v-20.834c0-22.203 6.335-42.925 17.289-60.469h265.153c10.953 17.544 17.288 38.266 17.288 60.469z" fill="#fdb0a0"/><g><path d="m417.657 211.724c.276 6.642-4.976 12.19-11.628 12.19h-203.93c-3.794 0-7.276-2.102-9.043-5.46l-16.562-31.477-13.875 30.905c-1.648 3.671-5.297 6.033-9.321 6.033h-47.327c-6.652 0-11.904-5.548-11.628-12.19 1.604-38.491 10.085-73.313 10.085-73.313h303.143c.001-.001 8.481 34.821 10.086 73.312z" fill="#433f43"/></g><g fill="#2d2b2d"><path d="m405.868 223.91c1.444 0 2.377-.747 2.804-1.193.439-.458 1.167-1.45 1.104-2.949-1.551-37.223-9.789-71.467-9.873-71.808-1.008-4.146 1.535-8.325 5.681-9.334 4.146-1.006 8.324 1.533 9.333 5.679.354 1.452 8.68 36.012 10.298 74.82.219 5.281-1.746 10.488-5.392 14.29-3.68 3.835-8.636 5.948-13.955 5.948z"/><path d="m106.134 239.363c-5.319 0-10.276-2.113-13.955-5.948-3.646-3.802-5.612-9.009-5.392-14.289 1.618-38.809 9.944-73.369 10.298-74.821 1.009-4.146 5.188-6.685 9.334-5.679 4.146 1.009 6.689 5.188 5.681 9.334-.084.341-8.321 34.585-9.873 71.809-.062 1.498.665 2.49 1.104 2.948.427.446 1.36 1.193 2.804 1.193v15.453z"/></g><path d="m256 369.425c-9.891 0-19.343-4.27-25.931-11.713-2.828-3.196-2.53-8.078.666-10.906 3.195-2.828 8.078-2.53 10.906.665 3.656 4.132 8.89 6.502 14.358 6.502s10.702-2.37 14.358-6.502c2.828-3.195 7.71-3.495 10.906-.665 3.196 2.828 3.494 7.71.666 10.906-6.586 7.443-16.038 11.713-25.929 11.713z" fill="#f9a08f"/><g><circle cx="326.348" cy="296.255" fill="#faf7f7" r="47.22"/><g id="XMLID_429_"><path d="m319.242 289.326-.083.083c-7.282 7.282-19.09 7.282-26.372 0s-7.282-19.09 0-26.372l.083-.083c7.282-7.282 19.09-7.282 26.372 0s7.282 19.089 0 26.372z" fill="#2d2b2d"/></g></g><g><circle cx="183.404" cy="296.255" fill="#faf7f7" r="47.22"/><g id="XMLID_428_"><path d="m176.557 289.065-.083.083c-7.282 7.282-19.09 7.282-26.372 0s-7.282-19.09 0-26.372l.083-.083c7.282-7.282 19.09-7.282 26.372 0 7.283 7.283 7.283 19.09 0 26.372z" fill="#2d2b2d"/></g></g><g><g><g><path d="m483.346 409.249c-7.305-7.584-19.721-7.354-27.166.092l-20.795 20.795v-94.828c0-9.409-7.627-17.036-17.036-17.036-9.409 0-17.036 7.627-17.036 17.036v-16.533c0-9.409-7.627-17.036-17.036-17.036-9.409 0-17.036 7.627-17.036 17.036v22.045c0-9.409-7.627-17.036-17.036-17.036-9.409 0-17.036 7.627-17.036 17.036v11.022c0-9.409-7.627-17.036-17.036-17.036-9.409 0-17.036 7.627-17.036 17.036v110.329c0 27.521 22.31 49.83 49.83 49.83h57.728c11.995 0 22.358-6.989 27.238-17.117 6.704-13.914 16.187-26.308 27.108-37.229l22.094-22.094c7.251-7.253 7.335-18.958.251-26.312z" fill="#fdb0a0"/><path d="m483.093 435.561-22.097 22.097c-10.92 10.92-20.398 23.313-27.104 37.22-4.883 10.137-15.247 17.122-27.238 17.122h-26.61c12.002 0 22.365-6.985 27.238-17.122 6.706-13.907 16.194-26.3 27.114-37.22l22.087-22.097c7.253-7.253 7.345-18.955.258-26.311-.072-.072-.144-.155-.227-.216 7.469-7.139 19.625-7.253 26.836.216 7.078 7.355 6.996 19.058-.257 26.311z" fill="#f9a08f"/><path d="m401.313 335.307v83.44" fill="#ffcec0"/><path d="m367.24 340.819v77.928" fill="#ffcec0"/><path d="m333.168 351.841v66.906" fill="#ffcec0"/><g fill="#f9a08f"><path d="m401.312 426.474c-4.267 0-7.726-3.46-7.726-7.726v-83.44c0-4.268 3.459-7.726 7.726-7.726s7.726 3.459 7.726 7.726l-.001 83.44c.002 4.266-3.458 7.726-7.725 7.726z"/><path d="m367.24 426.474c-4.267 0-7.726-3.459-7.726-7.726v-77.929c0-4.268 3.459-7.726 7.726-7.726s7.726 3.459 7.726 7.726v77.929c.001 4.267-3.458 7.726-7.726 7.726z"/><path d="m333.168 426.474c-4.267 0-7.726-3.459-7.726-7.726v-66.906c0-4.268 3.459-7.726 7.726-7.726s7.726 3.459 7.726 7.726v66.906c0 4.267-3.459 7.726-7.726 7.726z"/></g></g></g><g><g><path d="m28.654 409.249c7.305-7.584 19.721-7.354 27.166.092l20.795 20.795v-94.828c0-9.409 7.627-17.036 17.036-17.036 9.409 0 17.036 7.627 17.036 17.036v-16.533c0-9.409 7.627-17.036 17.036-17.036 9.409 0 17.036 7.627 17.036 17.036v22.045c0-9.409 7.627-17.036 17.036-17.036 9.409 0 17.036 7.627 17.036 17.036v11.022c0-9.409 7.627-17.036 17.036-17.036 9.409 0 17.036 7.627 17.036 17.036v110.329c0 27.521-22.31 49.83-49.83 49.83h-57.728c-11.995 0-22.358-6.989-27.238-17.117-6.704-13.914-16.187-26.308-27.108-37.229l-22.094-22.094c-7.251-7.253-7.335-18.958-.251-26.312z" fill="#fdb0a0"/><path d="m212.908 351.838v110.332c0 27.516-22.314 49.83-49.83 49.83h-31.132c27.516 0 49.83-22.314 49.83-49.83v-110.332c0-2.472-.525-4.821-1.473-6.933 2.658-5.944 8.633-10.096 15.566-10.096 4.708 0 8.963 1.906 12.043 4.986 3.09 3.08 4.996 7.335 4.996 12.043z" fill="#f9a08f"/><path d="m110.687 335.307v83.44" fill="#ffcec0"/><path d="m144.76 340.819v77.928" fill="#ffcec0"/><path d="m178.832 351.841v66.906" fill="#ffcec0"/><g fill="#f9a08f"><path d="m110.688 426.474c-4.267 0-7.726-3.459-7.726-7.726l-.001-83.44c0-4.268 3.459-7.726 7.726-7.726s7.726 3.459 7.726 7.726l.001 83.44c0 4.266-3.459 7.726-7.726 7.726z"/><path d="m144.76 426.474c-4.267 0-7.726-3.459-7.726-7.726v-77.929c0-4.268 3.459-7.726 7.726-7.726s7.726 3.459 7.726 7.726v77.929c0 4.267-3.459 7.726-7.726 7.726z"/><path d="m178.832 426.474c-4.267 0-7.726-3.459-7.726-7.726v-66.906c0-4.268 3.459-7.726 7.726-7.726s7.726 3.459 7.726 7.726v66.906c0 4.267-3.459 7.726-7.726 7.726z"/></g></g></g></g></svg>