<svg height="512" viewBox="0 0 60 60" width="512" xmlns="http://www.w3.org/2000/svg"><g id="Icons"><path d="m40.41 35.6a37.84 37.84 0 0 0 1.95-11.01c0-2.95 2-23.59-18-23.59h-.16a21.713 21.713 0 0 0 -8.72 1.72 17.7 17.7 0 0 0 -9.02 9.47c-3.06 7.08-1.86 11.03-1.1 19.27 1 10.82-6 9.83-4 19.66s16 10.81 28 .98a30.406 30.406 0 0 0 2.49-2.27z" fill="#f9c795"/><path d="m35.646 10.354a13.7 13.7 0 0 0 -11.285-5.354 11.793 11.793 0 0 0 -9.4 3.947c-5.2 6.036-3.661 16.748-3.594 17.2a1 1 0 0 0 1.979-.3 28.706 28.706 0 0 1 -.226-3.4 11.964 11.964 0 0 1 10.64 2.353 10.993 10.993 0 0 1 4.6 9.2c0 3.328-.416 4.063-5.2 5.02a15.735 15.735 0 0 0 -6.4 2.471 32.652 32.652 0 0 1 -2.848 1.614c-1.535.767-2.658.924-3.532.5a2.167 2.167 0 0 1 -1.25-1.822 7.856 7.856 0 0 1 1.07-3.218l.062-.124a1 1 0 0 0 -1.795-.882l-.061.123a9.441 9.441 0 0 0 -1.271 4.1 4.17 4.17 0 0 0 2.365 3.618 4.36 4.36 0 0 0 1.943.443 7.716 7.716 0 0 0 3.364-.946c1.332-.667 2.221-1.218 3.005-1.7a13.982 13.982 0 0 1 5.744-2.211c5.1-1.021 6.8-2.172 6.8-6.98a13.066 13.066 0 0 0 -5.4-10.8 13.928 13.928 0 0 0 -11.794-2.823c.174-3.29.93-7.359 3.318-10.129a9.881 9.881 0 0 1 7.881-3.254 11.769 11.769 0 0 1 9.7 4.575c3.327 4.317 4.266 11.279 2.451 18.17a1 1 0 0 0 .712 1.222 1.026 1.026 0 0 0 .256.033 1 1 0 0 0 .966-.745c1.971-7.478.898-15.104-2.8-19.901z" fill="#f09372"/><path d="m12.359 33c.045 0 4.495.043 6.17 2.555a1 1 0 0 0 1.664-1.11c-2.27-3.406-7.606-3.445-7.832-3.445a1 1 0 0 0 0 2z" fill="#f09372"/><g fill="#65ddb9"><path d="m42.229 57.139a2 2 0 0 1 -1.986-1.782 13.689 13.689 0 0 1 15.113-15.114 2 2 0 1 1 -.435 3.977 9.686 9.686 0 0 0 -10.7 10.7 2 2 0 0 1 -1.992 2.219z"/><path d="m33.66 55.375a2 2 0 0 1 -2-1.931 21.022 21.022 0 0 1 21.785-21.782 2 2 0 1 1 -.139 4 17.02 17.02 0 0 0 -17.646 17.644 2 2 0 0 1 -1.93 2.068z"/><path d="m51.138 59a2 2 0 0 1 -1.8-1.125 6.377 6.377 0 0 1 8.537-8.538 2 2 0 0 1 -1.75 3.6 2.378 2.378 0 0 0 -3.191 3.19 2 2 0 0 1 -1.796 2.873z"/></g></g></svg>