<svg id="Layer_1" enable-background="new 0 0 512 512" height="512" viewBox="0 0 512 512" width="512" xmlns="http://www.w3.org/2000/svg"><g id="XMLID_2_"><g id="XMLID_605_"><path id="XMLID_3102_" d="m245 506.9h-240v-108.2c0-38.9 22.5-74.3 57.7-90.8l44.5-20.9h64l43.9 21.2c19.4 9.4 35.3 24.8 45.2 43.9l27.9 53.7z" fill="#ebeae0"/><path id="XMLID_3095_" d="m107.2 287-24.6 11.5 47.7 38.7 16.3-30.2 26.2 25 21.1-34-22.7-11z" fill="#f5f5f0"/><path id="XMLID_3096_" d="m171.2 286.9-24.6 20-39.4-20v-80h64z" fill="#ffc970"/><path id="XMLID_3630_" d="m171.2 286.9-64-31v-49h64z" fill="#ffb233"/><path id="XMLID_3094_" d="m107.2 193.6h-26.2c-11 0-20-9-20-20v-59.7l27.5-32.5z" fill="#14294d"/><path id="XMLID_3112_" d="m88.6 81.4v32.5h-13.6c-14.4 0-26 11.7-26 26 0 14.4 11.7 26 26 26h13.5v3.5c0 47.2 38.2 85.4 85.4 85.4 47.2 0 85.4-38.2 85.4-85.4v-88z" fill="#ffc970"/><path id="XMLID_3107_" d="m237.4 108.3 22-4.3 4-15.4c10.9-42.3-21-83.5-64.6-83.5h-79.1c-43.2 0-75 40.3-64.9 82.3l6.4 26.6h27.5v26c11 0 20.5-7.7 22.7-18.5l6-28.8 7.1-2c20.1-5.8 41.8-2.8 59.6 8.1 15.9 9.7 34.9 13.1 53.3 9.5z" fill="#1f3e75"/><g id="XMLID_3106_"><path id="XMLID_3151_" d="m69 135h10v10h-10z" fill="#1f3e75"/></g><path id="XMLID_3103_" d="m5 426.9h60v80h-60z" fill="#ffc970"/><path id="XMLID_470_" d="m5 426.9h60v24h-60z" fill="#ffb233"/><path id="XMLID_3101_" d="m288.2 405.8 9.8 18.8 75.3-49.9 30.2 11.2-8.2 22.6-97.3 98.5h-53v-80.1z" fill="#ffc970"/><path id="XMLID_2726_" d="m403.5 385.9-30.2-11.2-8.9 5.9 10.7 48.4 20.2-20.5z" fill="#ffb233"/><path id="XMLID_492_" d="m65 375.9-28.2 51.1h28.2z" fill="#d7d5c1"/><path id="XMLID_490_" d="m271.5 414-26.5-38.1v51z" fill="#d7d5c1"/><path id="XMLID_91_" d="m245 459.8 53-35.2-9.8-18.8-43.2 21.1z" fill="#ffb233"/><g id="XMLID_3118_"><path id="XMLID_3160_" d="m140 123h27v10h-27z" fill="#1f3e75"/></g><g id="XMLID_3117_"><path id="XMLID_3158_" d="m162 145h10v20h-10z" fill="#1f3e75"/></g><g id="XMLID_3116_"><path id="XMLID_3155_" d="m209 123h27v10h-27z" fill="#1f3e75"/></g><g id="XMLID_3115_"><path id="XMLID_3154_" d="m204 145h10v20h-10z" fill="#1f3e75"/></g><g id="XMLID_3104_"><path id="XMLID_3114_" d="m191 203.7h-6c-12.6 0-22.9-10.3-22.9-22.9h10c0 7.1 5.8 12.9 12.9 12.9h6c7.1 0 12.9-5.8 12.9-12.9h10c-.1 12.7-10.3 22.9-22.9 22.9z" fill="#ffb233"/></g><path id="XMLID_3020_" d="m375.2 250.1h20v125h-20z" fill="#db3429" transform="matrix(.94 .342 -.342 .94 130.136 -112.907)"/><path id="XMLID_3724_" d="m387.2 277.9c5.9 3.1 12.1 5.5 18.6 7.3l10.1-27.9-18.8-6.8z" fill="#b3271e"/><path id="XMLID_2735_" d="m413.3 308.4-46.9-17.1-11.9 76.6 18.8 6.8 22 33.8 8.2-22.6z" fill="#ffc970"/><g fill="#ffb233"><path id="XMLID_3755_" d="m362.6 315.5 28.7 10.4 3.4-9.4-30.5-11.1z"/><path id="XMLID_3751_" d="m359.6 334.6 25.2 9.2 3.5-9.4-27.1-9.8z"/><path id="XMLID_2727_" d="m356.7 353.8 21.6 7.9 3.5-9.4-23.6-8.6z"/></g><circle id="XMLID_3022_" cx="429" cy="198.2" fill="#db3429" r="78"/><circle id="XMLID_493_" cx="429" cy="198.2" fill="#b3271e" r="69"/><path id="XMLID_530_" d="m406 123.6c-24.6 7.6-44 27-51.6 51.6 6.1 13.5 19.7 23 35.6 23 21.5 0 39-17.5 39-39 0-15.9-9.4-29.5-23-35.6z" fill="#e25d55"/><path id="XMLID_560_" d="m416.2 130.4c-27.9 5.2-49.8 27.2-55 55 7.1 7.8 17.4 12.8 28.8 12.8 21.5 0 39-17.5 39-39 0-11.5-4.9-21.7-12.8-28.8z" fill="#db3429"/><circle id="XMLID_3021_" cx="429" cy="198.2" fill="#ebeae0" r="60"/><path id="XMLID_551_" d="m471 182.5v.8c-1.5 30.5-26.3 55.3-56.8 56.8-.3 0-.5 0-.8 0-8.9.3-10.5 12.8-2 15.4 6.4 2 13.2 2.9 20.2 2.6 31-1.3 56.2-26.4 57.4-57.4.3-7.1-.6-13.9-2.6-20.2-2.7-8.6-15.1-6.9-15.4 2z" fill="#d7d5c1"/><circle id="XMLID_491_" cx="416" cy="185.2" fill="#f5f5f0" r="30"/></g></g></svg>