<svg id="Layer_1" enable-background="new 0 0 511 511" height="512" viewBox="0 0 511 511" width="512" xmlns="http://www.w3.org/2000/svg"><g><g><path d="m255.5 1c-98.131 0-158.58 55.352-158.747 55.445 0 0-2.513 3.137-2.983 5.222-3.818 16.948-7.385 39.663-7.385 56.238 0 140.833 118.763 254.972 259.596 254.972l147.868-207.707c-36.599-95.984-129.511-164.17-238.349-164.17z" fill="#c1f8f4"/></g><g><g><g><path d="m300.1 203.441c3.362-6.189 5.272-13.281 5.272-20.819 0-24.119-19.553-43.672-43.672-43.672-16.754 0-31.305 9.435-38.629 23.281-5.13-2.117-10.752-3.285-16.646-3.285-24.119 0-43.672 19.553-43.672 43.672 0 .659.015 1.315.044 1.967-8.365 3.652-14.212 11.998-14.212 21.709 0 13.076 10.6 23.676 23.676 23.676h121.627c13.076 0 23.676-10.6 23.676-23.676 0-10.927-7.401-20.124-17.464-22.853z" fill="#fff"/></g></g></g><g><g><g><path d="m399.075 91.709c2.255-4.149 3.535-8.905 3.535-13.959 0-16.172-13.11-29.282-29.282-29.282-11.234 0-20.99 6.326-25.901 15.61-3.44-1.419-7.209-2.202-11.161-2.202-16.172 0-29.282 13.11-29.282 29.282 0 .442.01.882.029 1.319-5.609 2.449-9.529 8.044-9.529 14.556 0 8.767 7.107 15.875 15.875 15.875h81.551c8.767 0 15.875-7.107 15.875-15.875 0-7.328-4.963-13.495-11.71-15.324z" fill="#fff"/></g></g></g><g><g><g><circle cx="374.587" cy="230.785" fill="#5ea55c" r="59.219"/></g></g></g><g><g><path d="m493.849 165.171c-11.903-8.069-26.265-12.782-41.728-12.782-41.124 0-74.461 33.337-74.461 74.461s33.337 74.461 74.461 74.461c23.303 0 44.106-10.705 57.759-27.464.381-5.518.62-11.504.62-17.847 0-31.995-5.893-62.613-16.651-90.829z" fill="#8bc852"/></g></g><g><g><path d="m509.412 232.291h-195.504l59.842 249.644c65.581-34.379 114.668-96.545 130.949-171.696.178-1.087 5.801-23.477 5.801-54.239 0-7.994-.368-15.903-1.088-23.709z" fill="#aad540"/></g></g><g><g><path d="m384.528 302.264c-4.392-11.381-13.185-20.513-24.393-25.332l-103.825-44.642c-48.224-13.112-95.728-21.216-142.082-21.337 2.288 5.021 23.118 44.259 23.118 49.681v211.606l225.23-113.13c20.857-10.475 30.355-35.071 21.952-56.846z" fill="#8bc852"/></g></g><g><path d="m124.514 211.104-123.643 31.023c-.246 4.593-.371 9.218-.371 13.873 0 49.22 13.945 95.183 38.099 134.153l37.352 46.919c15.531 15.402 33.034 28.819 52.095 39.84l196.688-98.793c-92.642-15.958-168.559-80.796-200.22-167.015z" fill="#5ea55c"/></g><g><g><g><g><path d="m173.474 381.016h-18.694l-4.527-208.776h23.221z" fill="#664545"/></g></g></g><g><g><g><path d="m136.086 172.24h18.694v208.776h-18.694z" fill="#523838"/></g></g></g><g><path d="m173.474 236.299v-57.038c-5.775-1.656-11.339-4.022-16.63-7.022h-6.591l1.415 65.261c2.326.23 4.677.35 7.049.35 5.028.001 9.955-.538 14.757-1.551z" fill="#523838"/></g><g><g><g><ellipse cx="158.717" cy="113.425" fill="#5ea55c" rx="89.353" ry="113.425"/></g></g></g><g><g><g><path d="m193.244 171.052c-49.348 0-89.353-50.782-89.353-113.425 0-13.568 1.877-26.58 5.319-38.64-24.021 20.332-39.846 55.039-39.846 94.438 0 62.643 40.005 113.425 89.353 113.425 38.659 0 71.584-31.166 84.033-74.785-14.171 11.995-31.195 18.987-49.506 18.987z" fill="#4f8980"/></g></g></g></g><g><path d="m374.184 259.498c-39.44-19.777-83.873-27.207-83.873-27.207h-34.002s217.13 88.539 59.058 132.215c-7.242 2.001-14.283 4.146-21.126 6.417l61.835 37.28 36.51-37.316c33.078-33.809 23.879-90.188-18.402-111.389z" fill="#70c6da"/></g><g><path d="m433.806 328.756c-5.091-73.321-118.438-96.465-118.438-96.465h-25.056s171.988 62.485 92.063 118.249c-20.043 13.984-41.323 26.154-58.577 43.463l101.886-18.196c5.772-15.441 9.223-31.2 8.122-47.051z" fill="#93d8e4"/></g><g><g><g><g><path d="m55.819 218.234v196.373c6.278 7.894 13.013 15.409 20.168 22.501v-218.874z" fill="#664545"/></g></g></g><g><g><path d="m57.293 416.447v-198.213h-18.694v171.919c5.683 9.168 11.93 17.949 18.694 26.294z" fill="#523838"/></g></g><g><path d="m74.105 76.799c-26.37 26.691-46.896 59.171-59.496 95.362-.077.221-.154.442-.23.663-11.395 33.028 15.218 66.809 50.026 63.789l49.822-4.323 30.492-32.38c3.581-9.884 5.534-20.548 5.534-31.668 0-45.6-32.833-83.53-76.148-91.443z" fill="#4f8980"/></g><g><path d="m57.293 271.203c6.404 0 12.654-.653 18.694-1.886v-45.447c-6.523-1.223-12.805-3.126-18.772-5.635h-1.396v52.938c.492.006.98.03 1.474.03z" fill="#523838"/></g><g><g><path d="m14.609 172.161c-7.692 22.096-12.429 45.576-13.737 69.966 15.646 11.966 35.203 19.075 56.422 19.075 40.22 0 74.474-25.543 87.426-61.291-14.744 9.831-32.455 15.561-51.505 15.561-33.084 0-62.131-17.282-78.606-43.311z" fill="#3d6b73"/></g></g><g><g><g><path d="m64.742 288.533h29.725v20h-29.725z" fill="#664545"/></g></g></g></g><g><circle cx="182.299" cy="184.741" fill="#f4dd45" r="9.718"/></g><g><circle cx="156.058" cy="121.244" fill="#f4dd45" r="9.718"/></g><g><circle cx="220.351" cy="130.963" fill="#f4dd45" r="9.718"/></g><g><circle cx="186.883" cy="67.081" fill="#f4dd45" r="9.718"/></g><g><circle cx="118.328" cy="63.118" fill="#f4dd45" r="9.718"/></g><g><circle cx="154.78" cy="28.705" fill="#f4dd45" r="9.718"/></g><g><path d="m425.684 375.803-62.679 61.305 10.745 44.827c53.233-27.906 95.597-74.121 118.371-130.727-20.644 11.05-42.945 19.408-66.437 24.595z" fill="#8bc852"/></g><g><path d="m369.292 381.927c-26.09 0-51.277-3.85-75.044-10.983-81.842 27.164-135.429 72.379-166.202 105.968 37.497 21.68 81.026 34.088 127.454 34.088l126.59-129.386c-4.24.205-8.507.313-12.798.313z" fill="#5ea5ec"/></g><g><path d="m425.68 375.804c-18.158 4.007-37.025 6.123-56.388 6.123-10.071 0-20.002-.591-29.775-1.703-5.486 4.282-10.771 8.814-15.719 13.777-39.417 39.543-62.648 78.558-68.298 116.999 42.522 0 82.8-10.466 118.256-29.055 8.636-31.033 37.513-67.591 51.924-106.141z" fill="#70c6da"/></g></g></svg>