<svg id="Capa_1" enable-background="new 0 0 512 512" height="512" viewBox="0 0 512 512" width="512" xmlns="http://www.w3.org/2000/svg"><path d="m164.965 452.167v59.833h182.394v-59.905l61.402-61.402-16.031-49.172-283.109 6.452 15.416 73.483" fill="#dd636e"/><g fill="#d82e3d"><path d="m349.894 375.037-48.572 51.143-45.16-45.703-45.16 45.703-48.571-51.143"/><path d="m248.436 341.977h15.453v170.023h-15.453z"/><path d="m133.802 327.289s-11.157 58.257 4.327 73.74c0 0 7.878-39.686 15.596-47.404s-19.923-26.336-19.923-26.336"/></g><path d="m412.206 268.67h.218c18.759 0 33.959-15.213 33.959-33.959 0-18.759-15.2-33.972-33.959-33.972-.244 0-.488 0-.732.013h-310.968c-.244-.013-.488-.013-.732-.013-18.759 0-33.959 15.213-33.959 33.972 0 18.746 15.2 33.959 33.959 33.959h.218" fill="#f1b986"/><path d="m404.394 112.058c-98.79-9.578-197.581-9.578-296.371 0-7.666 61.424-9.924 122.848-6.774 184.273 2.293 44.714 38.073 80.304 82.796 82.416 48.109 2.271 96.219 2.271 144.328 0 44.723-2.111 80.502-37.702 82.796-82.416 3.149-61.425.891-122.849-6.775-184.273z" fill="#f1d0a5"/><path d="m256.208 335.257c-15.9 0-30.58-9.284-37.399-23.651-2.044-4.306-.21-9.453 4.096-11.496 4.306-2.045 9.453-.209 11.496 4.096 3.977 8.379 12.537 13.792 21.807 13.792 9.271 0 17.831-5.414 21.807-13.792 2.043-4.305 7.189-6.14 11.497-4.096 4.305 2.043 6.14 7.191 4.096 11.497-6.819 14.366-21.499 23.65-37.4 23.65z" fill="#dd636e"/><path d="m108.028 112.048c49.387-4.79 98.788-7.177 148.189-7.177-25.01 0-50.02 2.417-75.031 7.251-3.891 62.017-5.026 124.034-3.434 186.036 1.046 40.809 15.961 74.087 35.533 81.677-9.742-.265-19.498-.634-29.24-1.091-44.715-2.108-80.498-37.7-82.797-82.414-3.138-61.427-.883-122.855 6.78-184.282z" fill="#f1b986"/><path d="m411.696 200.751c-69.62 0-176.562-45.079-222.407-65.976-13.833-6.311-22.107-10.411-22.107-10.411s-26.553 67.853-66.458 76.388c-.247-.012-.482-.012-.729-.012-7.237 0-13.944 2.26-19.452 6.126-13.165-94.828-27.948-156.432 5.324-174.908 33.26-18.489 56.059 4.31 56.059 4.31s33.309-17.624 79.253-28.295c54.601-12.696 127.036-15.574 182.576 32.605 58.307 50.588 42.56 117.539 7.941 160.173z" fill="#617881"/><path d="m189.289 134.775c-13.833-6.311-22.107-10.411-22.107-10.411s-26.553 67.853-66.458 76.388c-.247-.012-.482-.012-.729-.012-7.237 0-13.944 2.26-19.452 6.126-13.165-94.828-27.948-156.432 5.324-174.908 33.26-18.489 56.059 4.31 56.059 4.31s33.309-17.624 79.253-28.295c-54.812 13.301-57.418 93.271-31.89 126.802z" fill="#475959"/><path d="m178.481 440.979s-14.423 14.423-30.225 20.449c-5.707 2.174-11.59 3.256-17.05 2.163-58.587-8.22-51.386-101.74-51.386-156.216 0-13.938 53.982 19.913 53.982 19.913s-11.157 58.257 4.327 73.74z" fill="#dd636e"/><path d="m148.256 461.428c-5.707 2.174-11.59 3.256-17.05 2.163-58.587-8.22-51.386-101.74-51.386-156.216 0-13.938 3.75-25.775 9.323-35.655l37.952-8.54s-29.803 31.863-29.803 78.108c0 46.256 18.173 110.261 50.964 120.14z" fill="#d82e3d"/><path d="m136.973 230.709-3.173 96.579-33.306-12.29-20.676-7.623c0-26.61 13.64-45.524 27.599-57.896v-.01c14.608-12.95 29.556-18.76 29.556-18.76z" fill="#f1d0a5"/><path d="m381.219 463.592c-20.562 4.11-47.285-22.612-47.285-22.612l40.352-39.95c15.494-15.484 4.327-73.74 4.327-73.74s3.286-4.522 8.241-10.528c15.113-18.327 45.75-50.417 45.75-9.385 0 54.474 7.191 147.994-51.385 156.215z" fill="#dd636e"/><path d="m374.285 401.029c15.494-15.484 4.327-73.74 4.327-73.74s3.286-4.522 8.241-10.528l11.322 3.317c0-.001 2.432 76.15-23.89 80.951z" fill="#d82e3d"/><path d="m432.594 307.375-34.418 12.702-19.563 7.211-3.173-96.579s11.62 4.512 24.384 14.464l.227.185c15.483 12.125 32.543 32.255 32.543 62.017z" fill="#f1d0a5"/><path d="m398.175 320.077-19.563 7.211-3.173-96.579s11.62 4.512 24.384 14.464l.227.185c-6.861 14.402-14.711 50.077-1.875 74.719z" fill="#f1b986"/><path d="m211.638 247.519h89.142v43.073h-89.142z" fill="#475959"/><path d="m120.684 290.592c0-65.837 47.34-97.662 71.693-97.662s44.096 19.743 44.096 44.096v53.566z" fill="#475959"/><circle cx="178.579" cy="290.592" fill="#617881" r="57.895"/><circle cx="178.579" cy="290.592" fill="#b1e4f9" r="43.073"/><path d="m221.652 290.592c0 23.787-19.285 43.072-43.072 43.072-2.895 0-5.717-.288-8.448-.835 19.749-3.915 34.635-21.335 34.635-42.237s-14.886-38.323-34.635-42.237c2.73-.546 5.553-.834 8.448-.834 23.787-.001 43.072 19.284 43.072 43.071z" fill="#e4f6ff"/><path d="m221.651 290.593c0 23.787-19.285 43.072-43.072 43.072s-43.072-19.285-43.072-43.072c0-2.627.237-5.202.69-7.706 3.636 20.119 21.232 35.366 42.382 35.366s38.745-15.247 42.382-35.366c.453 2.504.69 5.079.69 7.706z" fill="#475959"/><path d="m391.733 290.592c0-65.837-47.34-97.662-71.694-97.662s-44.096 19.743-44.096 44.096v53.566z" fill="#475959"/><circle cx="333.838" cy="290.592" fill="#617881" r="57.895"/><circle cx="333.838" cy="290.592" fill="#b1e4f9" r="43.073"/><path d="m376.911 290.592c0 23.787-19.285 43.072-43.072 43.072-2.895 0-5.717-.288-8.448-.835 19.749-3.915 34.635-21.335 34.635-42.237s-14.886-38.323-34.635-42.237c2.73-.546 5.553-.834 8.448-.834 23.787-.001 43.072 19.284 43.072 43.071z" fill="#e4f6ff"/><path d="m376.91 290.593c0 23.787-19.285 43.072-43.072 43.072s-43.072-19.285-43.072-43.072c0-2.627.237-5.202.69-7.706 3.636 20.119 21.232 35.366 42.382 35.366s38.745-15.247 42.382-35.366c.453 2.504.69 5.079.69 7.706z" fill="#475959"/><path d="m100.494 314.999-20.676-7.623c0-26.61 13.64-45.524 27.599-57.896 0-.001 14 44.606-6.923 65.519z" fill="#f1b986"/></svg>