<svg id="Layer_3" height="512" viewBox="0 0 64 64" width="512" xmlns="http://www.w3.org/2000/svg" data-name="Layer 3"><path d="m26 12a20 20 0 0 1 20 20v20a0 0 0 0 1 0 0h-40a0 0 0 0 1 0 0v-20a20 20 0 0 1 20-20z" fill="#aa2b24"/><path d="m26 12a20 20 0 0 0 -20 20v17h31a4 4 0 0 0 4-4v-26.2a19.931 19.931 0 0 0 -15-6.8z" fill="#d24034"/><rect fill="#db665d" height="21" rx="4" width="22" x="12" y="21"/><path d="m32 21v-16a3 3 0 0 1 3-3h24a3 3 0 0 1 3 3v16a3 3 0 0 1 -3 3h-11l-4 4v-4h-9a3 3 0 0 1 -3-3z" fill="#f3a845"/><path d="m59 17v-15h-24a3 3 0 0 0 -3 3v16h23a4 4 0 0 0 4-4z" fill="#eecc61"/><rect fill="#fce79c" height="12" rx="3" width="20" x="35" y="5"/><path d="m2 56h48v6h-48z" fill="#474747"/><path d="m4 52h44v4h-44z" fill="#474747"/><circle cx="26" cy="36" fill="#eecc61" r="3"/><path d="m26 39a2.962 2.962 0 0 1 -1-.184v14.184h2v-14.184a2.962 2.962 0 0 1 -1 .184z" fill="#f3a845"/><path d="m23 36a2.984 2.984 0 0 1 .826-2.058l-8.826-2.942v10l8.826-2.942a2.984 2.984 0 0 1 -.826-2.058z" fill="#f3a845"/><path d="m28.174 33.942a2.977 2.977 0 0 1 0 4.116l8.826 2.942v-10z" fill="#f3a845"/><g fill="#d24034"><path d="m8 6.172h2v5.657h-2z" transform="matrix(.707 -.707 .707 .707 -3.728 9)"/><path d="m13 4h2v6h-2z"/><path d="m4 13h6v2h-6z"/></g><path d="m40 8a1 1 0 0 0 -1.707-.707l-3 3 1.414 1.414 1.293-1.293v6.586h-2v2h6v-2h-2z" fill="#fff"/><path d="m48 8a1 1 0 0 0 -1.707-.707l-3 3 1.414 1.414 1.293-1.293v6.586h-2v2h6v-2h-2z" fill="#fff"/><path d="m56.723 14.219a7.589 7.589 0 0 0 1.277-4.219 3 3 0 0 0 -6 0v1h2v-1a1 1 0 0 1 2 0 5.592 5.592 0 0 1 -.941 3.109l-2.891 4.336a1 1 0 0 0 .832 1.555h5v-2h-3.131z" fill="#fff"/><path d="m2 59h43a3 3 0 0 0 3-3h-46z" fill="#686868"/><path d="m4 54h40a2 2 0 0 0 2-2h-42z" fill="#686868"/></svg>