<svg id="Layer_1" enable-background="new 0 0 512 512" height="512" viewBox="0 0 512 512" width="512" xmlns="http://www.w3.org/2000/svg"><path d="m37.719 256h.01z"/><g><g fill="#f0142d"><path d="m239.934 64.267c-9.447 0-17.134-7.686-17.134-17.133s7.686-17.134 17.134-17.134h24.1c8.284 0 15-6.716 15-15s-6.716-15-15-15h-24.1c-25.99 0-47.134 21.145-47.134 47.134s21.145 47.133 47.134 47.133c9.447 0 17.133 7.687 17.133 17.134s-7.686 17.133-17.133 17.133h-24.101c-8.284 0-15 6.716-15 15s6.716 15 15 15h24.101c25.989 0 47.133-21.144 47.133-47.133s-21.144-47.134-47.133-47.134z"/><path d="m464.866 64.267c-9.447 0-17.133-7.686-17.133-17.133s7.686-17.134 17.133-17.134h24.101c8.284 0 15-6.716 15-15s-6.716-15-15-15h-24.101c-25.989 0-47.133 21.145-47.133 47.134s21.144 47.133 47.133 47.133c9.447 0 17.134 7.687 17.134 17.134s-7.687 17.133-17.134 17.133h-24.1c-8.284 0-15 6.716-15 15s6.716 15 15 15h24.1c25.989 0 47.134-21.144 47.134-47.133s-21.145-47.134-47.134-47.134z"/><path d="m352.4 0c-25.989 0-47.134 21.145-47.134 47.134v64.266c0 25.989 21.145 47.133 47.134 47.133s47.133-21.144 47.133-47.133v-64.266c0-25.989-21.143-47.134-47.133-47.134zm17.133 111.4c0 9.447-7.686 17.133-17.133 17.133s-17.134-7.686-17.134-17.133v-64.266c0-9.447 7.687-17.134 17.134-17.134s17.133 7.687 17.133 17.134z"/></g><path d="m304.2 512c-168.04 0-304.2-135.94-304.2-304.184 0-24.744 9.629-47.991 27.112-65.475l57.614-57.615c3.231-3.232 7.763-4.813 12.304-4.297 4.542.517 8.6 3.077 11.022 6.953l80.334 128.533c3.702 5.923 2.826 13.618-2.113 18.557l-46.248 46.248c-12.977 12.977-12.988 33.971 0 46.957l44.296 44.297c12.979 12.979 33.971 12.987 46.958 0l46.248-46.248c4.939-4.939 12.635-5.816 18.557-2.113l128.533 80.334c3.876 2.423 6.437 6.48 6.953 11.022.518 4.542-1.064 9.071-4.297 12.304l-57.615 57.614c-17.482 17.484-40.729 27.113-65.458 27.113z" fill="#5ac3dc"/><path d="m424.617 403.947-128.533-80.334c-5.922-3.703-13.617-2.826-18.557 2.113l-46.248 46.248c-12.987 12.987-33.979 12.979-46.958 0l-22.148-22.148-73.13 73.13c55.049 55.041 131.116 89.044 215.157 89.044 24.729 0 47.976-9.629 65.458-27.112l57.615-57.614c3.232-3.232 4.814-7.762 4.297-12.304-.516-4.542-3.077-8.6-6.953-11.023z" fill="#3c96c8"/><g fill="#b40000"><path d="m239.934 94.267c9.447 0 17.133 7.687 17.133 17.134s-7.686 17.133-17.133 17.133h-24.101c-8.284 0-15 6.716-15 15s6.716 15 15 15h24.101c25.989 0 47.133-21.144 47.133-47.133 0-12.41-4.829-23.708-12.696-32.134h-68.874c8.608 9.22 20.857 15 34.437 15z"/><path d="m464.866 94.267c9.447 0 17.134 7.687 17.134 17.134s-7.687 17.133-17.134 17.133h-24.1c-8.284 0-15 6.716-15 15s6.716 15 15 15h24.1c25.989 0 47.134-21.144 47.134-47.133 0-12.41-4.829-23.708-12.697-32.134h-68.874c8.609 9.22 20.858 15 34.437 15z"/><path d="m352.4 158.533c25.989 0 47.133-21.144 47.133-47.133v-32.133h-30v32.133c0 9.447-7.686 17.133-17.133 17.133s-17.134-7.686-17.134-17.133v-32.133h-30v32.133c.001 25.99 21.145 47.133 47.134 47.133z"/></g></g></svg>