<svg id="Capa_1" enable-background="new 0 0 494.618 494.618" height="512" viewBox="0 0 494.618 494.618" width="512" xmlns="http://www.w3.org/2000/svg"><g><g><g><path d="m183.912 109.085-7.86-36.158c-1.109-5.102-3.726-9.752-7.511-13.348l-23.038-21.886c-5.796-5.507-8.121-13.74-6.061-21.465 4.255-15.957 23.997-21.603 36.046-10.307l5.746 5.387c5.266 4.937 12.632 6.954 19.678 5.388l63.056-14.012c42.271-7.972 65.617 16.517 65.617 16.517 19.328 15.143 29.104 39.45 25.643 63.759-1.222 8.579-7.841 15.603-16.428 16.764-.364.049-.73.089-1.098.118-11.027.882-20.705-7.288-21.685-18.307l-.795-8.942c-.868-9.753-6.678-18.379-15.391-22.847-6.939-3.558-15.032-4.12-22.395-1.554l-33.976 11.84c-12.255 4.271-21.011 15.142-22.573 28.026l-2.549 21.026-15.99 10z" fill="#ab7b64"/></g></g><g><path d="m329.584 19.201s-22.848-23.934-64.245-16.747c22.286 4.213 34.245 16.747 34.245 16.747 19.328 15.143 29.104 39.45 25.643 63.759-.531 3.73-2.084 7.164-4.374 9.952 4.057 4.689 10.199 7.462 16.848 6.93.368-.029.735-.069 1.098-.118 8.587-1.162 15.207-8.185 16.428-16.764 3.461-24.309-6.315-48.616-25.643-63.759z" fill="#9a6a53"/></g><g><g><path d="m207.047 494.618h-13.356c-5.401 0-9.779-4.378-9.779-9.779v-343.754l16.457-10 16.457 10v343.754c0 5.401-4.378 9.779-9.779 9.779z" fill="#ab7b64"/></g></g><g><g><path d="m222.295 141.085h-43.852c-3.604 0-6.526-2.922-6.526-6.526v-18.948c0-3.604 2.922-6.526 6.526-6.526h43.852c3.604 0 6.526 2.922 6.526 6.526v18.948c0 3.604-2.922 6.526-6.526 6.526z" fill="#edc472"/></g></g></g></svg>