<svg id="Capa_1" enable-background="new 0 0 512 512" height="512" viewBox="0 0 512 512" width="512" xmlns="http://www.w3.org/2000/svg"><path d="m451 497h-390c-8.284 0-15-6.716-15-15v-150c0-8.284 6.716-15 15-15h390c8.284 0 15 6.716 15 15v150c0 8.284-6.716 15-15 15z" fill="#e6935c"/><path d="m481 497v-180c0-8.284-6.716-15-15-15h-210v210h210c8.284 0 15-6.716 15-15z" fill="#dc7d41"/><path d="m466 302h-420c-8.284 0-15 6.716-15 15v180c0 8.284 6.716 15 15 15h420c8.284 0 15-6.716 15-15v-180c0-8.284-6.716-15-15-15zm-140 120h-55v-30h55 55v30zm-140 0h-55v-30h55 55v30zm-125 0v-30h40v30zm350-30h40v30h-40zm40-30h-55-55v-30h110zm-140 0h-55-55v-30h110zm-250-30h110v30h-55-55zm0 120h55 55v30h-110zm140 0h55 55v30h-110zm250 30h-110v-30h55 55z" fill="#b95d2e"/><path d="m481 497v-180c0-8.284-6.716-15-15-15h-210v30h55v30h-55v90h55v30h-55v30h210c8.284 0 15-6.716 15-15zm-210-75v-30h55 55v30h-55zm180 60h-110v-30h55 55zm0-60h-40v-30h40zm0-60h-55-55v-30h110z" fill="#8f4c19"/><path d="m56 110h-40c-8.284 0-15-6.716-15-15s6.716-15 15-15h25v-25c0-8.284 6.716-15 15-15h400c8.284 0 15 6.716 15 15s-6.716 15-15 15h-385v25c0 8.284-6.716 15-15 15z" fill="#5a697d"/><path d="m456 40h-200v30h200c8.284 0 15-6.716 15-15s-6.716-15-15-15z" fill="#414664"/><path d="m316 90c-8.284 0-15-6.716-15-15v-40c0-8.284 6.716-15 15-15s15 6.716 15 15v40c0 8.284-6.716 15-15 15z" fill="#b95d2e"/><path d="m286 90c-8.284 0-15-6.716-15-15v-40c0-8.284 6.716-15 15-15s15 6.716 15 15v40c0 8.284-6.716 15-15 15z" fill="#8f4c19"/><path d="m256 140c-8.284 0-15-6.716-15-15v-90c0-8.284 6.716-15 15-15s15 6.716 15 15v90c0 8.284-6.716 15-15 15z" fill="#dc7d41"/><path d="m291 210h-70c-7.465 0-13.793-5.489-14.849-12.879l-10-70c-.615-4.305.668-8.664 3.517-11.949s6.984-5.172 11.332-5.172h90c4.349 0 8.482 1.887 11.332 5.172 2.849 3.285 4.132 7.645 3.518 11.949l-10 70c-1.056 7.39-7.385 12.879-14.85 12.879z" fill="#48b8ff"/><path d="m406 272c-8.284 0-15-6.716-15-15v-242c0-8.284 6.716-15 15-15s15 6.716 15 15v242c0 8.284-6.716 15-15 15z" fill="#c1e1fa"/><path d="m106 272c-8.284 0-15-6.716-15-15v-242c0-8.284 6.716-15 15-15s15 6.716 15 15v242c0 8.284-6.716 15-15 15z" fill="#dcf2ff"/><path d="m271 125v-90c0-8.284-6.716-15-15-15v120c8.284 0 15-6.716 15-15z" fill="#b95d2e"/><path d="m301 110h-45v100h35c7.465 0 13.794-5.489 14.85-12.879l10-70c.614-4.305-.669-8.664-3.518-11.949-2.85-3.285-6.983-5.172-11.332-5.172z" fill="#3296f5"/><path d="m311 140h-110c-8.284 0-15-6.716-15-15s6.716-15 15-15h110c8.284 0 15 6.716 15 15s-6.716 15-15 15z" fill="#c1e1fa"/><path d="m311 110h-55v30h55c8.284 0 15-6.716 15-15s-6.716-15-15-15z" fill="#a3c8eb"/><path d="m497 332h-482c-8.284 0-15-6.716-15-15v-60c0-8.284 6.716-15 15-15h482c8.284 0 15 6.716 15 15v60c0 8.284-6.716 15-15 15z" fill="#dc7d41"/><path d="m497 242h-241v90h241c8.284 0 15-6.716 15-15v-60c0-8.284-6.716-15-15-15z" fill="#b95d2e"/></svg>