<svg height="512pt" viewBox="0 0 512 512" width="512pt" xmlns="http://www.w3.org/2000/svg"><path d="m52.519531 453.773438c-12.386719 0-26.28125-2.644532-42.085937-9.183594-8.617188-3.566406-12.710938-13.445313-9.144532-22.0625 3.5625-8.617188 13.441407-12.710938 22.054688-9.144532 36.667969 15.175782 55.175781 1.480469 78.609375-15.859374 21.695313-16.054688 46.285156-34.25 84.488281-25.972657 9.113282 1.976563 14.902344 10.964844 12.925782 20.078125-1.976563 9.113282-10.960938 14.902344-20.078126 12.925782-22.132812-4.808594-36.171874 4.519531-57.25 20.117187-18.097656 13.390625-39.335937 29.101563-69.519531 29.101563zm0 0" fill="#e1b89a"/><path d="m412.085938 322.277344c-27.359376 0-53.140626-12.007813-71.621094-33.597656-9.742188-11.386719-8.414063-28.519532 2.972656-38.261719 11.390625-9.746094 28.519531-8.414063 38.265625 2.972656 8.699219 10.167969 20.890625 15.453125 33.414063 14.496094 13.042968-.996094 24.859374-8.550781 32.425781-20.734375 7.902343-12.734375 24.632812-16.648438 37.363281-8.746094 12.734375 7.90625 16.648438 24.632812 8.746094 37.367188-16.792969 27.054687-43.914063 43.902343-74.40625 46.230468-2.394532.183594-4.785156.273438-7.160156.273438zm0 0" fill="#d2996f"/><path d="m70.355469 348.882812c-1.914063 0-3.855469-.203124-5.800781-.628906-14.644532-3.191406-23.929688-17.648437-20.738282-32.289062 5.375-24.679688 21.589844-45.675782 45.660156-59.117188 29.871094-16.6875 67.785157-19.605468 101.417969-7.800781 14.140625 4.960937 21.582031 20.449219 16.621094 34.589844-4.964844 14.140625-20.453125 21.582031-34.589844 16.621093-18.894531-6.628906-40.726562-5.105468-56.980469 3.972657-7.285156 4.070312-16.511718 11.410156-19.097656 23.289062-2.769531 12.695313-14.007812 21.363281-26.492187 21.363281zm0 0" fill="#e1b89a"/><path d="m56.359375 286.761719c-5.984375 8.871093-10.253906 18.699219-12.542969 29.203125-3.191406 14.640625 6.09375 29.097656 20.738282 32.289062 1.945312.425782 3.886718.628906 5.800781.628906 12.484375 0 23.722656-8.667968 26.488281-21.367187 1.265625-5.796875 4.117188-10.511719 7.546875-14.296875zm0 0" fill="#fae0bd"/><path d="m207.0625 512c-7.714844 0-15.382812-3.273438-20.75-9.632812-18.269531-21.648438-23.085938-52.695313-13.554688-87.421876 6.507813-23.707031 19.769532-48.527343 33.007813-61.761718 10.597656-10.597656 27.777344-10.597656 38.375 0s10.597656 27.78125 0 38.378906c-10.527344 10.527344-32.273437 56.9375-16.351563 75.800781 9.664063 11.453125 8.214844 28.574219-3.238281 38.238281-5.089843 4.296876-11.304687 6.398438-17.488281 6.398438zm0 0" fill="#e1b89a"/><path d="m382.957031 486.292969c-2.519531 0-5.082031-.355469-7.625-1.097657-14.386719-4.207031-22.636719-19.277343-18.433593-33.664062 3.4375-11.75 1.558593-20.894531-5.90625-28.773438-10.117188-10.675781-25.320313-14.066406-30.480469-13.355468-12.535157 6.75-28.320313 2.652344-35.914063-9.613282-7.894531-12.738281-3.964844-29.464843 8.777344-37.359374 24.613281-15.246094 62.589844-4.695313 85.820312 12.980468 28.945313 22.019532 40.082032 56.167969 29.796876 91.351563-3.460938 11.84375-14.289063 19.53125-26.035157 19.53125zm0 0" fill="#d2996f"/><path d="m358.507812 439.320312c.222657 3.75-.316406 7.796876-1.605468 12.210938-4.207032 14.386719 4.042968 29.457031 18.429687 33.664062 2.542969.742188 5.105469 1.097657 7.628907 1.097657 11.742187 0 22.570312-7.6875 26.03125-19.527344 1.976562-6.753906 3.152343-13.46875 3.574218-20.066406zm0 0" fill="#fae0bd"/><path d="m357.179688 209.648438h-183.402344l-22.332032 107.972656c-13.398437 64.777344 36.070313 125.523437 102.21875 125.523437h23.628907c66.148437 0 115.617187-60.746093 102.21875-125.523437zm0 0" fill="#e1b89a"/><path d="m253.664062 443.140625h23.628907c2.84375 0 5.65625-.117187 8.433593-.339844-62.410156-31.652343-101.246093-131.574219-110.3125-233.152343h-1.636718l-22.332032 107.972656c-13.398437 64.777344 36.070313 125.519531 102.21875 125.519531zm0 0" fill="#d2996f"/><path d="m512 146.390625c0-28.664063-24.863281-51.902344-55.53125-51.902344s-55.53125 23.238281-55.53125 51.902344 24.863281 51.898437 55.53125 51.898437 55.53125-23.234374 55.53125-51.898437zm0 0" fill="#fae0bd"/><path d="m416.359375 160.117188c-2.125 0-4.234375-.894532-5.71875-2.640626-2.683594-3.15625-2.300781-7.890624.855469-10.574218 19.714844-16.757813 46.835937-17.609375 61.675781-8.75 3.554687 2.125 4.714844 6.730468 2.59375 10.285156-2.125 3.554688-6.730469 4.71875-10.285156 2.59375-8.785157-5.246094-29.058594-5.628906-44.269531 7.300781-1.410157 1.199219-3.136719 1.785157-4.851563 1.785157zm0 0" fill="#f3be77"/><path d="m138.4375 146.390625c0-28.664063-24.863281-51.902344-55.53125-51.902344s-55.53125 23.238281-55.53125 51.902344 24.863281 51.898437 55.53125 51.898437 55.53125-23.234374 55.53125-51.898437zm0 0" fill="#fae0bd"/><path d="m123.015625 160.117188c-1.714844 0-3.441406-.585938-4.851563-1.785157-15.207031-12.929687-35.480468-12.550781-44.269531-7.300781-3.554687 2.121094-8.160156.960938-10.285156-2.59375-2.121094-3.558594-.960937-8.160156 2.597656-10.285156 14.835938-8.859375 41.960938-8.007813 61.671875 8.75 3.15625 2.683594 3.539063 7.417968.855469 10.574218-1.484375 1.746094-3.59375 2.640626-5.71875 2.640626zm0 0" fill="#f3be77"/><path d="m269.6875 0c97.171875 0 183.433594 46.21875 175.945312 151.285156-6.210937 87.160156-78.773437 146.773438-175.945312 146.773438s-169.734375-59.613282-175.945312-146.773438c-7.488282-105.066406 78.773437-151.285156 175.945312-151.285156zm0 0" fill="#e1b89a"/><path d="m186.988281 281.535156c-22.699219-95.726562-17.824219-208.628906 20.585938-274.578125-68.695313 16.433594-119.660157 62.554688-113.832031 144.328125 4.265624 59.890625 39.863281 106.777344 93.246093 130.25zm0 0" fill="#d2996f"/><path d="m160.609375 267.054688c29.472656 19.789062 66.957031 31.003906 109.078125 31.003906s79.605469-11.214844 109.078125-31.003906c38.132813-46.171876 42.882813-118.894532 16.382813-155.800782-34.339844-47.832031-85.628907-47.636718-117.699219-27.523437-4.730469 2.964843-10.792969 2.964843-15.523438 0-32.070312-20.113281-83.359375-20.308594-117.699219 27.523437-26.5 36.90625-21.75 109.628906 16.382813 155.800782zm0 0" fill="#fae0bd"/><path d="m186.972656 281.476562c-15.726562-66.355468-18.203125-140.957031-5.449218-202.449218-13.386719 6.375-26.222657 16.800781-37.296876 32.222656-26.5 36.910156-21.75 109.632812 16.382813 155.804688 8.1875 5.496093 17.015625 10.304687 26.363281 14.421874zm0 0" fill="#f3be77"/><path d="m207.796875 191.414062c0-15.917968-16.203125-28.820312-36.191406-28.820312-19.984375 0-36.1875 12.902344-36.1875 28.820312 0 15.914063 16.203125 28.816407 36.1875 28.816407 19.988281 0 36.191406-12.902344 36.191406-28.816407zm0 0" fill="#eda1ab"/><path d="m403.957031 191.414062c0-15.917968-16.203125-28.820312-36.1875-28.820312-19.988281 0-36.191406 12.902344-36.191406 28.820312 0 15.914063 16.203125 28.816407 36.191406 28.816407 19.984375 0 36.1875-12.902344 36.1875-28.816407zm0 0" fill="#eda1ab"/><g fill="#4e5660"><path d="m294.007812 182.257812c0-15.03125-10.890624-27.214843-24.320312-27.214843s-24.320312 12.183593-24.320312 27.214843c0 15.027344 10.890624 27.210938 24.320312 27.210938s24.320312-12.183594 24.320312-27.210938zm0 0"/><path d="m209.925781 167.550781c-4.144531 0-7.5-3.355469-7.5-7.5 0-5.359375-4.363281-9.726562-9.726562-9.726562s-9.726563 4.363281-9.726563 9.726562c0 4.144531-3.359375 7.5-7.5 7.5s-7.5-3.355469-7.5-7.5c0-13.632812 11.089844-24.726562 24.726563-24.726562 13.632812 0 24.726562 11.09375 24.726562 24.726562 0 4.144531-3.359375 7.5-7.5 7.5zm0 0"/><path d="m363.902344 167.550781c-4.144532 0-7.5-3.355469-7.5-7.5 0-5.359375-4.363282-9.726562-9.726563-9.726562s-9.726562 4.363281-9.726562 9.726562c0 4.144531-3.355469 7.5-7.5 7.5-4.140625 0-7.5-3.355469-7.5-7.5 0-13.632812 11.09375-24.726562 24.726562-24.726562 13.632813 0 24.726563 11.09375 24.726563 24.726562 0 4.144531-3.359375 7.5-7.5 7.5zm0 0"/></g><path d="m306.066406 374.882812c0-24.589843-18.171875-44.523437-40.585937-44.523437-22.417969 0-40.589844 19.933594-40.589844 44.523437 0 24.589844 18.171875 44.523438 40.589844 44.523438 22.414062 0 40.585937-19.933594 40.585937-44.523438zm0 0" fill="#fae0bd"/><path d="m251.789062 416.804688c-9.675781-10.210938-18.519531-22.265626-26.5-35.757813 2.09375 16.59375 12.519532 30.261719 26.5 35.757813zm0 0" fill="#f3be77"/><path d="m484.90625 238.40625c-12.730469-7.90625-29.460938-3.992188-37.363281 8.742188-3.011719 4.851562-6.707031 8.957031-10.875 12.21875l38.542969 38.542968c7.003906-6.308594 13.222656-13.730468 18.441406-22.136718 7.90625-12.734376 3.988281-29.464844-8.746094-37.367188zm0 0" fill="#fae0bd"/><path d="m223.207031 457.976562-47.09375 28.570313c2.726563 5.695313 6.125 10.992187 10.199219 15.816406 5.367188 6.363281 13.035156 9.636719 20.75 9.636719 6.183594 0 12.398438-2.101562 17.492188-6.398438 11.453124-9.667968 12.902343-26.789062 3.234374-38.242187-2.230468-2.640625-3.699218-5.835937-4.582031-9.382813zm0 0" fill="#fae0bd"/></svg>