<svg height="512" viewBox="0 0 59 58" width="512" xmlns="http://www.w3.org/2000/svg"><g id="Page-1" fill="none" fill-rule="evenodd"><g id="026---Star-Confetti" fill-rule="nonzero"><path id="Shape" d="m13.971 26.872 5.523 6.976c.2498487.3150305.6388768.4867265 1.04.459l8.791-.626c.4604561-.0315864.8993181.1993735 1.134002.5967914.234684.3974179.2250081.8932492-.025002 1.2812086l-4.827 7.489c-.2149704.3340724-.2541317.7517931-.105 1.12l3.364 8.306c.1752801.4298754.0907297.9220255-.2179694 1.2687543s-.7877678.4876319-1.2350306.3632457l-8.48-2.375c-.3902062-.109804-.8094728-.0170924-1.117.247l-6.688 5.728c-.3529401.3014855-.8466432.3759494-1.27280418.1919737-.42616094-.1839758-.71055745-.5943491-.73319582-1.0579737l-.451-8.951c-.02002057-.3965627-.23146979-.7586741-.567-.971l-7.535-4.756c-.38997892-.2464919-.60755832-.6918822-.56228098-1.1510028.04527733-.4591207.34566585-.8534303.77628098-1.0189972l8.235-3.139c.37578071-.1437636.65641981-.4636921.75-.855l2.067-8.654c.1082954-.4528249.4656474-.8040591.9202746-.9045198.4546273-.1004607.9267058.0674911 1.2157254.4325198z" fill="#f0c419"/><path id="Shape" d="m47.35 18.794 2.219 7.286c.096512.3255848.348874.5816966.673.683l7.038 2.137c.3712967.1257459.642756.4463147.7056051.8332555.062849.3869409-.0931947.7769471-.4056051 1.0137445l-6 4.587c-.268799.2080532-.4231207.5311642-.416.871l.139 7.71c.0192685.392542-.1882653.7613575-.5337952.9486262-.3455299.1872686-.7678345.15981-1.0862048-.0706262l-5.9-4.466c-.2704789-.2051416-.6274007-.2568858-.945-.137l-6.918 2.61c-.369782.1279472-.7801585.0335286-1.0568436-.2431564-.276685-.2766851-.3711036-.6870616-.2431564-1.0568436l2.323-7.353c.1031053-.3238133.0467212-.677327-.152-.953l-4.45-6.1c-.2321124-.3161662-.2704699-.734729-.0996886-1.0878167.1707813-.3530878.5227291-.5828679.9146886-.5971833l7.356-.054c.3395058-.0052232.6541059-.1792095.839-.464l4.2-6.356c.2119968-.3282494.5957678-.5029477.9825362-.4472651s.7056728.3315443.8164638.7062651z" fill="#f0c419"/><path id="Shape" d="m19.226.344 4.437 5.367c.1956694.24104572.4989166.36827441.808.339l6.695-.669c.3578174-.02561488.7004602.14875414.8903622.45310042.1899021.30434629.19592.68875806.0156378.99889958l-3.453 5.98c-.1538142.2702886-.1705067.5974604-.045.882l2.826 6.455c.1540782.3246502.1084601.7088777-.1173525.9884247-.2258125.2795469-.5918565.4049407-.9416475.3225753l-6.551-1.693c-.300552-.0785136-.6203462.003514-.846.217l-4.926 4.635c-.2670526.2404371-.6482693.3065544-.980691.1700888-.3324218-.1364656-.5572235-.4513654-.578309-.8100888l-.624-7.021c-.0270878-.3096618-.1991891-.5882137-.464-.751l-5.9-3.582c-.30703293-.1858611-.48602905-.5263451-.46506397-.8846383.02096508-.3582933.23844969-.6755777.56506397-.8243617l6.192-2.633c.2811387-.12511621.4821861-.38119896.537-.684l1.31-6.841c.0615916-.35458512.3253242-.64013306.6739078-.72965175.3485836-.08951868.7172698.03361973.9420922.31465175z" fill="#f0c419"/><path id="Shape" d="m36 12c-.5522847 0-1-.4477153-1-1v-1c0-.55228475.4477153-1 1-1s1 .44771525 1 1v1c0 .5522847-.4477153 1-1 1z" fill="#24ae5f"/><path id="Shape" d="m39 14h-1c-.5522847 0-1-.4477153-1-1s.4477153-1 1-1h1c.5522847 0 1 .4477153 1 1s-.4477153 1-1 1z" fill="#24ae5f"/><path id="Shape" d="m36 17c-.5522847 0-1-.4477153-1-1v-1c0-.5522847.4477153-1 1-1s1 .4477153 1 1v1c0 .5522847-.4477153 1-1 1z" fill="#24ae5f"/><path id="Shape" d="m34 14h-1c-.5522847 0-1-.4477153-1-1s.4477153-1 1-1h1c.5522847 0 1 .4477153 1 1s-.4477153 1-1 1z" fill="#24ae5f"/><path id="Shape" d="m25 26c-.5522847 0-1-.4477153-1-1v-1c0-.5522847.4477153-1 1-1s1 .4477153 1 1v1c0 .5522847-.4477153 1-1 1z" fill="#3b97d3"/><path id="Shape" d="m28 28h-1c-.5522847 0-1-.4477153-1-1s.4477153-1 1-1h1c.5522847 0 1 .4477153 1 1s-.4477153 1-1 1z" fill="#3b97d3"/><path id="Shape" d="m25 31c-.5522847 0-1-.4477153-1-1v-1c0-.5522847.4477153-1 1-1s1 .4477153 1 1v1c0 .5522847-.4477153 1-1 1z" fill="#3b97d3"/><path id="Shape" d="m23 28h-1c-.5522847 0-1-.4477153-1-1s.4477153-1 1-1h1c.5522847 0 1 .4477153 1 1s-.4477153 1-1 1z" fill="#3b97d3"/><g fill="#894b9d"><path id="Shape" d="m6 20c-.55228475 0-1-.4477153-1-1v-1c0-.5522847.44771525-1 1-1s1 .4477153 1 1v1c0 .5522847-.44771525 1-1 1z"/><path id="Shape" d="m9 22h-1c-.55228475 0-1-.4477153-1-1s.44771525-1 1-1h1c.55228475 0 1 .4477153 1 1s-.44771525 1-1 1z"/><path id="Shape" d="m6 25c-.55228475 0-1-.4477153-1-1v-1c0-.5522847.44771525-1 1-1s1 .4477153 1 1v1c0 .5522847-.44771525 1-1 1z"/><path id="Shape" d="m4 22h-1c-.55228475 0-1-.4477153-1-1s.44771525-1 1-1h1c.55228475 0 1 .4477153 1 1s-.44771525 1-1 1z"/><path id="Shape" d="m55 15c-.5522847 0-1-.4477153-1-1v-1c0-.5522847.4477153-1 1-1s1 .4477153 1 1v1c0 .5522847-.4477153 1-1 1z"/><path id="Shape" d="m58 17h-1c-.5522847 0-1-.4477153-1-1s.4477153-1 1-1h1c.5522847 0 1 .4477153 1 1s-.4477153 1-1 1z"/><path id="Shape" d="m55 20c-.5522847 0-1-.4477153-1-1v-1c0-.5522847.4477153-1 1-1s1 .4477153 1 1v1c0 .5522847-.4477153 1-1 1z"/><path id="Shape" d="m53 17h-1c-.5522847 0-1-.4477153-1-1s.4477153-1 1-1h1c.5522847 0 1 .4477153 1 1s-.4477153 1-1 1z"/></g><path id="Shape" d="m35 49c-.5522847 0-1-.4477153-1-1v-1c0-.5522847.4477153-1 1-1s1 .4477153 1 1v1c0 .5522847-.4477153 1-1 1z" fill="#ff5364"/><path id="Shape" d="m38 51h-1c-.5522847 0-1-.4477153-1-1s.4477153-1 1-1h1c.5522847 0 1 .4477153 1 1s-.4477153 1-1 1z" fill="#ff5364"/><path id="Shape" d="m35 54c-.5522847 0-1-.4477153-1-1v-1c0-.5522847.4477153-1 1-1s1 .4477153 1 1v1c0 .5522847-.4477153 1-1 1z" fill="#ff5364"/><path id="Shape" d="m33 51h-1c-.5522847 0-1-.4477153-1-1s.4477153-1 1-1h1c.5522847 0 1 .4477153 1 1s-.4477153 1-1 1z" fill="#ff5364"/><circle id="Oval" cx="45" cy="9" fill="#ff5364" r="2"/><circle id="Oval" cx="45" cy="48" fill="#ff5364" r="2"/><circle id="Oval" cx="4" cy="32" fill="#ff5364" r="2"/></g></g></svg>