<svg id="Capa_1" enable-background="new 0 0 511.88 511.88" height="512" viewBox="0 0 511.88 511.88" width="512" xmlns="http://www.w3.org/2000/svg"><g><path d="m295.816 198.598-118.756 25.023-40.155 38.215c-25.791 24.545-67.118 21.533-89.077-6.493l31.735-34.654 61.159-89.321 213.024 9.396-.156 45.831z" fill="#efb5a3"/><path d="m511.88 87.84v162.95h-45.74l-21.24 25.5c-8.14 9.79-17.88 17.99-28.7 24.33s-22.74 10.82-35.26 13.15c-27.05 5.02-51.2 20.08-67.63 42.14l-50.73 68.13c-31.88-21.14-39.95-64.47-17.8-95.67l51.17-72.1.72-57.85.12-9.2-63.17-28.03-106.88 19.95-40.02 36.36c-11.33 10.29-25.47 15.3-39.53 15.3-17.85 0-35.57-8.07-47.19-23.64l93.48-91.85 165.22-29.47z" fill="#f9ded0"/><path d="m511.88 198.42v52.37h-45.74l-21.24 25.5c-8.14 9.79-17.88 17.99-28.7 24.33s-22.74 10.82-35.26 13.15c-27.05 5.02-51.2 20.08-67.63 42.14l-50.73 68.13c-31.88-21.14-39.95-64.47-17.8-95.67l51.17-72.1.72-57.85z" fill="#f7cdbf"/></g></svg>