<svg id="Layer_1" height="512" viewBox="0 0 64 64" width="512" xmlns="http://www.w3.org/2000/svg" data-name="Layer 1"><path d="m61 31c2-2 2-6 2-6h-3c5-7 1-13 1-13-1 5-7 7-7 7s-4 2-13 3a24.078 24.078 0 0 0 -23 15c5.712.843 20.123 3.513 32 0a30.044 30.044 0 0 0 11-6z" fill="#f26522"/><path d="m36.146 39.762a109.294 109.294 0 0 1 -16.821-1.549l-1.472-.224a1 1 0 0 1 -.78-1.366 25.08 25.08 0 0 1 23.885-15.623c8.618-.965 12.558-2.874 12.6-2.894a1.165 1.165 0 0 1 .127-.053c.055-.019 5.465-1.889 6.337-6.248a1 1 0 0 1 1.813-.358 12.334 12.334 0 0 1 -.019 12.553h1.184a1 1 0 0 1 1 1c0 .181-.026 4.44-2.293 6.707-.018.019-.037.036-.057.053a30.835 30.835 0 0 1 -11.367 6.2 50.415 50.415 0 0 1 -14.137 1.802zm-16.7-3.554.187.028c6.278.969 19.344 2.981 30.086-.2a28.817 28.817 0 0 0 10.6-5.774 7.707 7.707 0 0 0 1.617-4.262h-1.936a1 1 0 0 1 -.814-1.581 10.91 10.91 0 0 0 1.892-9.794c-1.983 3.536-6.092 5.089-6.7 5.3-.576.274-4.7 2.116-13.271 3.068a1.3 1.3 0 0 1 -.139.006 23.064 23.064 0 0 0 -21.525 13.209z" fill="#f26522"/><path d="m10 24c0 2-3 5-3 5-6 3-6 11-6 11v23h62v-27c-2 3-7 2-7 2 4-3 1-9 1-9-3 5-14 7-14 7l-19 2s2-11-4-14l-3-2c0 10-6 12-6 12 3-4-1-10-1-10 0 2-3 5-3 5-6 3-6 11-6 11" fill="#ff9901"/><path d="m63 64h-62a1 1 0 0 1 -1-1v-23c0-.349.073-8.525 6.4-11.817 1.116-1.148 2.6-3.128 2.6-4.183a1 1 0 0 1 .254-.661 1.059 1.059 0 0 1 .159-.144 1 1 0 0 1 .495-.195.931.931 0 0 1 .181 0 1.006 1.006 0 0 1 .687.364.973.973 0 0 1 .067.093c.223.338 2.636 4.1 2.232 7.847 1.412-1.547 2.925-4.361 2.925-9.304a1 1 0 0 1 1.555-.832l2.95 1.967c5.287 2.7 5 10.587 4.66 13.737l17.735-1.866c.031-.009 10.516-1.969 13.247-6.521a.944.944 0 0 1 .9-.484 1 1 0 0 1 .856.552c.118.236 2.473 5.054.237 8.605 1.378-.032 3.138-.364 4.037-1.713a1 1 0 0 1 1.823.555v27a1 1 0 0 1 -1 1zm-61-2h60v-23.771a10.232 10.232 0 0 1 -6.2.751 1 1 0 0 1 -.4-1.78c2.164-1.623 1.8-4.437 1.29-6.191-4.116 4.223-13.09 5.9-13.511 5.975l-19.079 2.01a1 1 0 0 1 -1.088-1.173c.019-.1 1.793-10.3-3.463-12.927a.946.946 0 0 1 -.107-.062l-1.512-1.008c-.683 9.038-6.36 11.039-6.617 11.124a1 1 0 0 1 -1.113-1.548c1.579-2.105.805-5-.012-6.894a16.731 16.731 0 0 1 -2.481 3.2.985.985 0 0 1 -.26.188c-5.363 2.682-5.447 10.034-5.447 10.106z" fill="#ff9901"/><path d="m54 64h-53a1 1 0 0 1 -1-1v-12s1.17-7.83 7.33-9.5 7.5-5.33 7.5-5.33 3.25 1.33 2.63 5.83 27.96.75 32.83-4.71c0 0 2.88 5.21-1.12 9.38 0 0 9.66 1.16 12-3 0 0 1.16 17.33-7.17 20.33z" fill="#f7aa4d"/><path d="m55 26a1 1 0 0 1 -.707-1.707l1-1a1 1 0 0 1 1.414 1.414l-1 1a1 1 0 0 1 -.707.293z" fill="#f9c87a"/><path d="m50 40a1 1 0 0 1 -.707-1.707l1-1a1 1 0 0 1 1.414 1.414l-1 1a1 1 0 0 1 -.707.293z" fill="#f9c87a"/><path d="m19 37a1 1 0 0 1 -.707-1.707l1-1a1 1 0 0 1 1.414 1.414l-1 1a1 1 0 0 1 -.707.293z" fill="#f26522"/><path d="m7 52a1 1 0 0 1 -.707-1.707l1-1a1 1 0 0 1 1.414 1.414l-1 1a1 1 0 0 1 -.707.293z" fill="#f26522"/><path d="m6 39a1 1 0 0 1 -.707-1.707l1-1a1 1 0 0 1 1.414 1.414l-1 1a1 1 0 0 1 -.707.293z" fill="#f9c87a"/><path d="m54 10a1 1 0 0 1 -.707-1.707l1-1a1 1 0 0 1 1.414 1.414l-1 1a1 1 0 0 1 -.707.293z" fill="#f26522"/><path d="m45 3a1 1 0 0 1 -.707-1.707l1-1a1 1 0 0 1 1.414 1.414l-1 1a1 1 0 0 1 -.707.293z" fill="#f26522"/><path d="m49 39h-4v-16h7v5" fill="#146fb4"/><path d="m49 40h-4a1 1 0 0 1 -1-1v-16a1 1 0 0 1 1-1h7a1 1 0 0 1 1 1v5a1 1 0 0 1 -2 0v-4h-5v14h3a1 1 0 0 1 0 2z" fill="#146fb4"/><path d="m45 64a1 1 0 0 1 -1-1v-11a1 1 0 0 1 2 0v11a1 1 0 0 1 -1 1z" fill="#231f20"/><path d="m55 63a3 3 0 0 0 3-3v-16h-9v4a6 6 0 0 0 -6-6h-25.544a6 6 0 0 0 -5.973 5.431l-1.483 15.569z" fill="#2290d3"/><path d="m55 64h-45a1 1 0 0 1 -1-1.095l1.483-15.569a6.971 6.971 0 0 1 6.973-6.336h25.544a6.987 6.987 0 0 1 5.234 2.356 1 1 0 0 1 .766-.356h9a1 1 0 0 1 1 1v16a4 4 0 0 1 -4 4zm-43.9-2h43.9a2 2 0 0 0 2-2v-15h-7v12a1 1 0 0 1 -2 0v-9a5.006 5.006 0 0 0 -5-5h-25.544a4.979 4.979 0 0 0 -4.977 4.525z" fill="#2290d3"/><path d="m36 62h-1a1 1 0 0 1 0-2h1a1 1 0 0 1 0 2z" fill="#055177"/><path d="m40 62h-1a1 1 0 0 1 0-2h1a1 1 0 0 1 0 2z" fill="#055177"/><path d="m29 34.487v7.513a4.859 4.859 0 0 0 9 0v-7.936z" fill="#f9c87a"/><path d="m33.526 46.023a6 6 0 0 1 -5.439-3.615 1.007 1.007 0 0 1 -.087-.408v-7.513a1 1 0 0 1 .953-1l9-.423a.982.982 0 0 1 .737.275 1 1 0 0 1 .31.724v7.937a1 1 0 0 1 -.083.4 5.948 5.948 0 0 1 -4.817 3.6 5.672 5.672 0 0 1 -.574.023zm-3.526-4.248a3.849 3.849 0 0 0 7 .006v-6.669l-7 .329z" fill="#f9c87a"/><path d="m39 34.06v2.92a15.252 15.252 0 0 1 -2 .88 21.269 21.269 0 0 1 -7 1.14c-.64 0-1.3-.02-2-.07v-4.44a.993.993 0 0 1 .95-1l9-.42a.963.963 0 0 1 .74.27.992.992 0 0 1 .31.72z" fill="#efac4b"/><path d="m49 58a1 1 0 0 1 -1-1v-13a1 1 0 0 1 2 0v13a1 1 0 0 1 -1 1z" fill="#146fb4"/><path d="m19 64a1 1 0 0 1 -1-1v-11a1 1 0 0 1 2 0v11a1 1 0 0 1 -1 1z" fill="#055177"/><path d="m43 19v7a9 9 0 0 1 -9 9h-2a9 9 0 0 1 -9-9v-7a13 13 0 0 1 10-5 13 13 0 0 1 10 5z" fill="#f9c87a"/><path d="m34 36h-2a10.011 10.011 0 0 1 -10-10v-7a1 1 0 0 1 .2-.6 13.888 13.888 0 0 1 10.8-5.4 13.891 13.891 0 0 1 10.8 5.4 1 1 0 0 1 .2.6v7a10.011 10.011 0 0 1 -10 10zm-10-16.652v6.652a8.009 8.009 0 0 0 8 8h2a8.009 8.009 0 0 0 8-8v-6.659a12.084 12.084 0 0 0 -9-4.341 12.007 12.007 0 0 0 -9 4.348z" fill="#f9c87a"/><path d="m28 24a1 1 0 0 1 -1-1v-1a1 1 0 0 1 2 0v1a1 1 0 0 1 -1 1z" fill="#055177"/><path d="m38 24a1 1 0 0 1 -1-1v-1a1 1 0 0 1 2 0v1a1 1 0 0 1 -1 1z" fill="#055177"/><path d="m30 28h7a0 0 0 0 1 0 0v1a2 2 0 0 1 -2 2h-3a2 2 0 0 1 -2-2v-1a0 0 0 0 1 0 0z" fill="#f26522" transform="matrix(-1 0 0 -1 67 59)"/><path d="m37 32h-7a1 1 0 0 1 -1-1v-1a3 3 0 0 1 3-3h3a3 3 0 0 1 3 3v1a1 1 0 0 1 -1 1zm-6-2h5a1 1 0 0 0 -1-1h-3a1 1 0 0 0 -1 1z" fill="#f26522"/><path d="m43 19v-3a8 8 0 0 0 -8-8h-4a8 8 0 0 0 -8 8v3s7 1 10-3c0 0 2 2 1 4a4.373 4.373 0 0 0 4-3z" fill="#055177"/><path d="m34 21a1 1 0 0 1 -.895-1.447 2.13 2.13 0 0 0 -.188-1.978c-3.578 3.293-9.772 2.455-10.059 2.415a1 1 0 0 1 -.858-.99v-3a9.01 9.01 0 0 1 9-9h4a9.01 9.01 0 0 1 9 9v3a1 1 0 0 1 -1.372.929l-4.1-1.643a5.394 5.394 0 0 1 -4.528 2.714zm-1-6a1 1 0 0 1 .707.293 5.671 5.671 0 0 1 1.575 3.392 3.232 3.232 0 0 0 1.77-2 1 1 0 0 1 1.32-.612l3.628 1.45v-1.523a7.008 7.008 0 0 0 -7-7h-4a7.008 7.008 0 0 0 -7 7v2.084c1.843.1 6.171.021 8.2-2.684a1 1 0 0 1 .729-.4z" fill="#055177"/><path d="m19 7a6 6 0 0 0 -6-6h-6a6 6 0 0 0 -6 6v5a6 6 0 0 0 6 6h6l6 2-1-4 1-3z" fill="#f9c87a"/><path d="m19 21a.983.983 0 0 1 -.316-.052l-5.846-1.948h-5.838a7.008 7.008 0 0 1 -7-7v-5a7.008 7.008 0 0 1 7-7h6a7.008 7.008 0 0 1 7 7v6a1 1 0 0 1 -.051.316l-.908 2.724.93 3.718a1 1 0 0 1 -.971 1.242zm-12-19a5.006 5.006 0 0 0 -5 5v5a5.006 5.006 0 0 0 5 5h6a1 1 0 0 1 .316.052l4.271 1.424-.558-2.233a1 1 0 0 1 .021-.559l.95-2.846v-5.838a5.006 5.006 0 0 0 -5-5z" fill="#f9c87a"/><path d="m8 14s-5-1-1-7l2 2a5.024 5.024 0 0 0 1-5s9 3 3 10z" fill="#ff9901"/><path d="m13 15h-5a1.021 1.021 0 0 1 -.2-.02 4.451 4.451 0 0 1 -3.061-2.432c-.672-1.623-.193-3.677 1.425-6.1a1 1 0 0 1 1.539-.152l1.157 1.15a4.025 4.025 0 0 0 .191-3.13 1 1 0 0 1 1.265-1.265c.187.062 4.592 1.567 5.561 5.063.565 2.039-.147 4.238-2.118 6.536a1 1 0 0 1 -.759.35zm-4.879-2h4.409c1.293-1.622 1.771-3.085 1.42-4.353a5.474 5.474 0 0 0 -2.667-2.938 6.028 6.028 0 0 1 -1.576 4 1.029 1.029 0 0 1 -1.414 0l-1.1-1.1a3.92 3.92 0 0 0 -.6 3.175 2.361 2.361 0 0 0 1.528 1.216z" fill="#ff9901"/><g fill="#f9c87a"><path d="m49 28v16h9v-9.892a5.946 5.946 0 0 0 -6.14-6.108z"/><path d="m58 45h-9a1 1 0 0 1 -1-1v-16a1 1 0 0 1 1-1h2.859a6.968 6.968 0 0 1 7.141 7.108v9.892a1 1 0 0 1 -1 1zm-8-2h7v-8.892a4.957 4.957 0 0 0 -5.141-5.108h-1.859z"/></g></svg>